<?xml version="1.0" encoding="UTF-8" standalone="no"?>
<!-- Created with Inkscape (http://www.inkscape.org/) -->

<svg
   xmlns:dc="http://purl.org/dc/elements/1.1/"
   xmlns:cc="http://creativecommons.org/ns#"
   xmlns:rdf="http://www.w3.org/1999/02/22-rdf-syntax-ns#"
   xmlns:svg="http://www.w3.org/2000/svg"
   xmlns="http://www.w3.org/2000/svg"
   xmlns:xlink="http://www.w3.org/1999/xlink"
   xmlns:sodipodi="http://sodipodi.sourceforge.net/DTD/sodipodi-0.dtd"
   xmlns:inkscape="http://www.inkscape.org/namespaces/inkscape"
   width="210mm"
   height="297mm"
   id="svg4290"
   version="1.1"
   inkscape:version="0.48.2 r9819"
   sodipodi:docname="Nouveau document 6">
  <defs
     id="defs4292">
    <linearGradient
       id="linearGradient5394">
      <stop
         style="stop-color:#d4d4d4;stop-opacity:1;"
         offset="0"
         id="stop5396" />
      <stop
         id="stop5398"
         offset="0.46587324"
         style="stop-color:#323232;stop-opacity:1;" />
      <stop
         style="stop-color:#d4d4d4;stop-opacity:1;"
         offset="1"
         id="stop5400" />
    </linearGradient>
    <linearGradient
       id="linearGradient5244">
      <stop
         style="stop-color:#ba31d9;stop-opacity:1;"
         offset="0"
         id="stop5246" />
      <stop
         id="stop5252"
         offset="0.5"
         style="stop-color:#5f3ee3;stop-opacity:1;" />
      <stop
         style="stop-color:#ba31d9;stop-opacity:0.30980393;"
         offset="1"
         id="stop5248" />
    </linearGradient>
    <inkscape:path-effect
       effect="skeletal"
       id="path-effect5228"
       is_visible="true"
       pattern="M 0,5 C 0,2.24 2.24,0 5,0 7.76,0 10,2.24 10,5 10,7.76 7.76,10 5,10 2.24,10 0,7.76 0,5 z"
       copytype="single_stretched"
       prop_scale="1"
       scale_y_rel="false"
       spacing="0"
       normal_offset="0"
       tang_offset="0"
       prop_units="false"
       vertical_pattern="false"
       fuse_tolerance="0" />
    <inkscape:path-effect
       effect="spiro"
       id="path-effect5226"
       is_visible="true" />
    <inkscape:path-effect
       effect="skeletal"
       id="path-effect5218"
       is_visible="true"
       pattern="M 0,5 C 0,2.24 2.24,0 5,0 7.76,0 10,2.24 10,5 10,7.76 7.76,10 5,10 2.24,10 0,7.76 0,5 z"
       copytype="single_stretched"
       prop_scale="1"
       scale_y_rel="false"
       spacing="0"
       normal_offset="0"
       tang_offset="0"
       prop_units="false"
       vertical_pattern="false"
       fuse_tolerance="0" />
    <inkscape:path-effect
       effect="skeletal"
       id="path-effect5214"
       is_visible="true"
       pattern="M 0,5 C 0,2.24 2.24,0 5,0 7.76,0 10,2.24 10,5 10,7.76 7.76,10 5,10 2.24,10 0,7.76 0,5 z"
       copytype="single_stretched"
       prop_scale="1"
       scale_y_rel="false"
       spacing="0"
       normal_offset="0"
       tang_offset="0"
       prop_units="false"
       vertical_pattern="false"
       fuse_tolerance="0" />
    <inkscape:path-effect
       effect="skeletal"
       id="path-effect5210"
       is_visible="true"
       pattern="M 0,5 C 0,2.24 2.24,0 5,0 7.76,0 10,2.24 10,5 10,7.76 7.76,10 5,10 2.24,10 0,7.76 0,5 z"
       copytype="single_stretched"
       prop_scale="1"
       scale_y_rel="false"
       spacing="0"
       normal_offset="0"
       tang_offset="0"
       prop_units="false"
       vertical_pattern="false"
       fuse_tolerance="0" />
    <inkscape:path-effect
       effect="skeletal"
       id="path-effect5206"
       is_visible="true"
       pattern="M 0,5 10,10 10,0 z"
       copytype="single_stretched"
       prop_scale="1"
       scale_y_rel="false"
       spacing="0"
       normal_offset="0"
       tang_offset="0"
       prop_units="false"
       vertical_pattern="false"
       fuse_tolerance="0" />
    <inkscape:path-effect
       effect="skeletal"
       id="path-effect5202"
       is_visible="true"
       pattern="M 0,5 10,10 10,0 z"
       copytype="single_stretched"
       prop_scale="1"
       scale_y_rel="false"
       spacing="0"
       normal_offset="0"
       tang_offset="0"
       prop_units="false"
       vertical_pattern="false"
       fuse_tolerance="0" />
    <linearGradient
       id="linearGradient4945">
      <stop
         id="stop4947"
         offset="0"
         style="stop-color:#979797;stop-opacity:1;" />
      <stop
         style="stop-color:#323232;stop-opacity:1;"
         offset="0.5"
         id="stop4949" />
      <stop
         id="stop4951"
         offset="1"
         style="stop-color:#979797;stop-opacity:1;" />
    </linearGradient>
    <linearGradient
       id="linearGradient4937">
      <stop
         id="stop4939"
         offset="0"
         style="stop-color:#000000;stop-opacity:1;" />
      <stop
         style="stop-color:#323232;stop-opacity:1;"
         offset="0.33390057"
         id="stop4941" />
      <stop
         id="stop4943"
         offset="1"
         style="stop-color:#656565;stop-opacity:1;" />
    </linearGradient>
    <linearGradient
       id="linearGradient4842">
      <stop
         style="stop-color:#000000;stop-opacity:1;"
         offset="0"
         id="stop4844" />
      <stop
         id="stop4850"
         offset="0.86363637"
         style="stop-color:#323232;stop-opacity:1;" />
      <stop
         style="stop-color:#656565;stop-opacity:1;"
         offset="1"
         id="stop4846" />
    </linearGradient>
    <radialGradient
       inkscape:collect="always"
       xlink:href="#linearGradient4842"
       id="radialGradient4854"
       cx="200"
       cy="487.375"
       fx="200"
       fy="487.375"
       r="135"
       gradientUnits="userSpaceOnUse" />
    <linearGradient
       inkscape:collect="always"
       xlink:href="#linearGradient4945"
       id="linearGradient4933"
       x1="353.92856"
       y1="544.91888"
       x2="353.92856"
       y2="521.11218"
       gradientUnits="userSpaceOnUse" />
    <linearGradient
       inkscape:collect="always"
       xlink:href="#linearGradient4937"
       id="linearGradient4935"
       gradientUnits="userSpaceOnUse"
       x1="353.92856"
       y1="544.91888"
       x2="353.92856"
       y2="521.11218" />
    <linearGradient
       inkscape:collect="always"
       xlink:href="#linearGradient4945"
       id="linearGradient4953"
       gradientUnits="userSpaceOnUse"
       x1="353.92856"
       y1="554.88208"
       x2="353.92856"
       y2="521.11218" />
    <linearGradient
       inkscape:collect="always"
       xlink:href="#linearGradient4937"
       id="linearGradient4956"
       gradientUnits="userSpaceOnUse"
       x1="353.92856"
       y1="544.91888"
       x2="353.92856"
       y2="521.11218"
       gradientTransform="matrix(1,0,0,3.4054029,-153.92857,-1287.2348)" />
    <linearGradient
       inkscape:collect="always"
       xlink:href="#linearGradient4945"
       id="linearGradient4959"
       gradientUnits="userSpaceOnUse"
       x1="353.92856"
       y1="554.88208"
       x2="353.92856"
       y2="521.11218"
       gradientTransform="matrix(1,0,0,3.4054029,-153.92857,-1287.2348)" />
    <linearGradient
       inkscape:collect="always"
       xlink:href="#linearGradient4945-5"
       id="linearGradient4959-5"
       gradientUnits="userSpaceOnUse"
       x1="353.92856"
       y1="554.88208"
       x2="353.92856"
       y2="521.11218"
       gradientTransform="matrix(1,0,0,3.4054029,-153.92857,-1287.2348)" />
    <linearGradient
       id="linearGradient4945-5">
      <stop
         id="stop4947-2"
         offset="0"
         style="stop-color:#000000;stop-opacity:1;" />
      <stop
         style="stop-color:#323232;stop-opacity:1;"
         offset="0.2391869"
         id="stop4949-1" />
      <stop
         id="stop4951-4"
         offset="1"
         style="stop-color:#656565;stop-opacity:1;" />
    </linearGradient>
    <linearGradient
       y2="521.11218"
       x2="353.92856"
       y1="554.88208"
       x1="353.92856"
       gradientTransform="matrix(0,1,-3.4054029,0,1974.6098,133.43361)"
       gradientUnits="userSpaceOnUse"
       id="linearGradient4978"
       xlink:href="#linearGradient4945-5"
       inkscape:collect="always" />
    <linearGradient
       y2="521.11218"
       x2="353.92856"
       y1="554.88208"
       x1="353.92856"
       gradientTransform="matrix(0,1,-3.4054029,0,1974.6098,133.43361)"
       gradientUnits="userSpaceOnUse"
       id="linearGradient4978-6"
       xlink:href="#linearGradient4945-5-4"
       inkscape:collect="always" />
    <linearGradient
       id="linearGradient4945-5-4">
      <stop
         id="stop4947-2-6"
         offset="0"
         style="stop-color:#000000;stop-opacity:1;" />
      <stop
         style="stop-color:#323232;stop-opacity:1;"
         offset="0.2391869"
         id="stop4949-1-8" />
      <stop
         id="stop4951-4-9"
         offset="1"
         style="stop-color:#656565;stop-opacity:1;" />
    </linearGradient>
    <linearGradient
       y2="521.11218"
       x2="353.92856"
       y1="554.88208"
       x1="353.92856"
       gradientTransform="matrix(-1,0,0,-3.4054029,553.92857,2261.972)"
       gradientUnits="userSpaceOnUse"
       id="linearGradient5015"
       xlink:href="#linearGradient4945-5-4"
       inkscape:collect="always" />
    <linearGradient
       y2="521.11218"
       x2="353.92856"
       y1="554.88208"
       x1="353.92856"
       gradientTransform="matrix(-1,0,0,-3.4054029,553.92857,2261.972)"
       gradientUnits="userSpaceOnUse"
       id="linearGradient5015-3"
       xlink:href="#linearGradient4945-5-4-5"
       inkscape:collect="always" />
    <linearGradient
       id="linearGradient4945-5-4-5">
      <stop
         id="stop4947-2-6-5"
         offset="0"
         style="stop-color:#000000;stop-opacity:1;" />
      <stop
         style="stop-color:#323232;stop-opacity:1;"
         offset="0.2391869"
         id="stop4949-1-8-1" />
      <stop
         id="stop4951-4-9-5"
         offset="1"
         style="stop-color:#656565;stop-opacity:1;" />
    </linearGradient>
    <linearGradient
       y2="521.11218"
       x2="353.92856"
       y1="554.88208"
       x1="353.92856"
       gradientTransform="matrix(0,1,3.4054029,0,-1574.6098,133.43361)"
       gradientUnits="userSpaceOnUse"
       id="linearGradient5052"
       xlink:href="#linearGradient4945-5-4-5"
       inkscape:collect="always" />
    <linearGradient
       inkscape:collect="always"
       xlink:href="#linearGradient4945-4"
       id="linearGradient5075-8"
       x1="190"
       y1="554.875"
       x2="210"
       y2="554.875"
       gradientUnits="userSpaceOnUse"
       gradientTransform="matrix(1,0,0,0.43112197,0,354.04265)" />
    <linearGradient
       id="linearGradient4945-4">
      <stop
         id="stop4947-0"
         offset="0"
         style="stop-color:#979797;stop-opacity:1;" />
      <stop
         style="stop-color:#323232;stop-opacity:1;"
         offset="0.5"
         id="stop4949-5" />
      <stop
         id="stop4951-47"
         offset="1"
         style="stop-color:#979797;stop-opacity:1;" />
    </linearGradient>
    <linearGradient
       y2="554.875"
       x2="210"
       y1="554.875"
       x1="190"
       gradientTransform="matrix(0,1,-0.43112197,0,333.31953,287.71931)"
       gradientUnits="userSpaceOnUse"
       id="linearGradient5095-1"
       xlink:href="#linearGradient4945-4-4"
       inkscape:collect="always" />
    <linearGradient
       id="linearGradient4945-4-4">
      <stop
         id="stop4947-0-9"
         offset="0"
         style="stop-color:#d4d4d4;stop-opacity:1;" />
      <stop
         style="stop-color:#323232;stop-opacity:1;"
         offset="0.5"
         id="stop4949-5-9" />
      <stop
         id="stop4951-47-0"
         offset="1"
         style="stop-color:#d4d4d4;stop-opacity:1;" />
    </linearGradient>
    <linearGradient
       y2="554.875"
       x2="210"
       y1="554.875"
       x1="190"
       gradientTransform="matrix(0,1,0.43112197,0,66.743602,287.36217)"
       gradientUnits="userSpaceOnUse"
       id="linearGradient5136-0"
       xlink:href="#linearGradient4945-4-4-3"
       inkscape:collect="always" />
    <linearGradient
       id="linearGradient4945-4-4-3">
      <stop
         id="stop4947-0-9-5"
         offset="0"
         style="stop-color:#979797;stop-opacity:1;" />
      <stop
         style="stop-color:#323232;stop-opacity:1;"
         offset="0.5"
         id="stop4949-5-9-0" />
      <stop
         id="stop4951-47-0-7"
         offset="1"
         style="stop-color:#979797;stop-opacity:1;" />
    </linearGradient>
    <radialGradient
       inkscape:collect="always"
       xlink:href="#linearGradient5244"
       id="radialGradient5254"
       cx="212.29333"
       cy="492.81027"
       fx="212.29333"
       fy="492.81027"
       r="83.109459"
       gradientTransform="matrix(1,0,0,1.0716678,0,-35.318612)"
       gradientUnits="userSpaceOnUse" />
    <radialGradient
       inkscape:collect="always"
       xlink:href="#linearGradient4945-4-4-3"
       id="radialGradient5262"
       cx="200.12085"
       cy="487.36218"
       fx="200.12085"
       fy="487.36218"
       r="134.94228"
       gradientTransform="matrix(1,0,0,1.0004277,0,-0.20846534)"
       gradientUnits="userSpaceOnUse" />
    <radialGradient
       inkscape:collect="always"
       xlink:href="#linearGradient5394"
       id="radialGradient5392"
       cx="174.04387"
       cy="575.98322"
       fx="174.04387"
       fy="575.98322"
       r="68.578125"
       gradientTransform="matrix(3.6313374e-7,4.3016633,-2.1581226,2.0455496e-7,1443.0423,-261.31606)"
       gradientUnits="userSpaceOnUse" />
    <linearGradient
       inkscape:collect="always"
       xlink:href="#linearGradient4945-5-4-5"
       id="linearGradient5410"
       x1="199.5"
       y1="634.875"
       x2="336.65625"
       y2="634.875"
       gradientUnits="userSpaceOnUse" />
    <radialGradient
       inkscape:collect="always"
       xlink:href="#linearGradient5394-1"
       id="radialGradient5392-8"
       cx="174.04387"
       cy="575.98322"
       fx="174.04387"
       fy="575.98322"
       r="68.578125"
       gradientTransform="matrix(3.6313374e-7,4.3016633,-2.1581226,2.0455496e-7,1443.0423,-261.31606)"
       gradientUnits="userSpaceOnUse" />
    <linearGradient
       id="linearGradient5394-1">
      <stop
         style="stop-color:#d4d4d4;stop-opacity:1;"
         offset="0"
         id="stop5396-5" />
      <stop
         id="stop5398-2"
         offset="0.46587324"
         style="stop-color:#323232;stop-opacity:1;" />
      <stop
         style="stop-color:#d4d4d4;stop-opacity:1;"
         offset="1"
         id="stop5400-3" />
    </linearGradient>
    <linearGradient
       inkscape:collect="always"
       xlink:href="#linearGradient4945-5-4-5-4"
       id="linearGradient5410-2"
       x1="199.5"
       y1="634.875"
       x2="336.65625"
       y2="634.875"
       gradientUnits="userSpaceOnUse" />
    <linearGradient
       id="linearGradient4945-5-4-5-4">
      <stop
         id="stop4947-2-6-5-6"
         offset="0"
         style="stop-color:#000000;stop-opacity:1;" />
      <stop
         style="stop-color:#323232;stop-opacity:1;"
         offset="0.2391869"
         id="stop4949-1-8-1-6" />
      <stop
         id="stop4951-4-9-5-6"
         offset="1"
         style="stop-color:#656565;stop-opacity:1;" />
    </linearGradient>
    <radialGradient
       r="68.578125"
       fy="575.98322"
       fx="174.04387"
       cy="575.98322"
       cx="174.04387"
       gradientTransform="matrix(-3.6313374e-7,-4.3016633,2.1581226,-2.0455496e-7,-1043.0423,1236.0533)"
       gradientUnits="userSpaceOnUse"
       id="radialGradient5433"
       xlink:href="#linearGradient5394-1"
       inkscape:collect="always" />
    <linearGradient
       gradientTransform="matrix(-1,0,0,-1,400.00002,974.73716)"
       y2="634.875"
       x2="336.65625"
       y1="634.875"
       x1="199.5"
       gradientUnits="userSpaceOnUse"
       id="linearGradient5435"
       xlink:href="#linearGradient4945-5-4-5-4"
       inkscape:collect="always" />
  </defs>
  <sodipodi:namedview
     id="base"
     pagecolor="#ffffff"
     bordercolor="#666666"
     borderopacity="1.0"
     inkscape:pageopacity="0.0"
     inkscape:pageshadow="2"
     inkscape:zoom="1.4"
     inkscape:cx="109.48318"
     inkscape:cy="561.96628"
     inkscape:document-units="px"
     inkscape:current-layer="layer1"
     showgrid="false"
     showguides="true"
     inkscape:guide-bbox="true"
     inkscape:window-width="1920"
     inkscape:window-height="1005"
     inkscape:window-x="-9"
     inkscape:window-y="-9"
     inkscape:window-maximized="1">
    <sodipodi:guide
       orientation="0,1"
       position="0,700"
       id="guide4318" />
    <sodipodi:guide
       orientation="1,0"
       position="200,700"
       id="guide4320" />
    <sodipodi:guide
       orientation="0,1"
       position="200,680"
       id="guide4322" />
    <sodipodi:guide
       orientation="0,1"
       position="200,430"
       id="guide4324" />
    <sodipodi:guide
       orientation="0,1"
       position="200,450"
       id="guide4326" />
    <sodipodi:guide
       orientation="1,0"
       position="65,565"
       id="guide5116" />
    <sodipodi:guide
       orientation="1,0"
       position="335,565"
       id="guide5118" />
    <sodipodi:guide
       orientation="0,1"
       position="200,860"
       id="guide5310" />
    <sodipodi:guide
       orientation="0,1"
       position="200,270"
       id="guide5312" />
    <sodipodi:guide
       orientation="1,0"
       position="84.852814,575.28187"
       id="guide5324" />
    <sodipodi:guide
       orientation="1,0"
       position="314.66252,557.60421"
       id="guide5326" />
    <sodipodi:guide
       orientation="0,1"
       position="200,565"
       id="guide5328" />
  </sodipodi:namedview>
  <metadata
     id="metadata4295">
    <rdf:RDF>
      <cc:Work
         rdf:about="">
        <dc:format>image/svg+xml</dc:format>
        <dc:type
           rdf:resource="http://purl.org/dc/dcmitype/StillImage" />
        <dc:title></dc:title>
      </cc:Work>
    </rdf:RDF>
  </metadata>
  <g
     inkscape:label="Calque 1"
     inkscape:groupmode="layer"
     id="layer1">
    <path
       style="fill:url(#radialGradient5392);fill-opacity:1;stroke:url(#linearGradient5410);stroke-width:1px;stroke-linecap:butt;stroke-linejoin:miter;stroke-opacity:1;fill-rule:nonzero"
       d="M 335 487.375 C 335 489.82165 334.90978 492.24164 334.78125 494.65625 C 335.71286 490.01848 336.15625 487.375 336.15625 487.375 L 335 487.375 z M 320.625 547.96875 C 298.41587 592.08006 252.75605 622.375 200 622.375 L 200 782.375 L 201.15625 782.375 C 268.55513 688.01323 303.3695 602.37536 320.625 547.96875 z "
       id="path5314" />
    <g
       id="g5264">
      <path
         id="path4298"
         d="M 200 352.375 C 125.44156 352.375 65 412.81656 65 487.375 C 65 561.93344 125.44156 622.375 200 622.375 C 274.55844 622.375 335 561.93344 335 487.375 C 335 412.81656 274.55844 352.375 200 352.375 z M 200 372.375 C 263.51275 372.375 315 423.86225 315 487.375 C 315 550.88775 263.51275 602.375 200 602.375 C 136.48725 602.375 85 550.88775 85 487.375 C 85 423.86225 136.48725 372.375 200 372.375 z "
         style="fill:url(#radialGradient4854);fill-opacity:1;fill-rule:evenodd;stroke:none" />
      <g
         style="fill-opacity:1.0;fill:url(#radialGradient5262)"
         id="g5194">
        <path
           style="fill:url(#radialGradient5262);fill-opacity:1.0;fill-rule:evenodd;stroke:none"
           d="m 200,564.16071 -10,21.48874 0,36.71273 20,0 0,-36.71273 -10,-21.48874 z"
           id="rect4860-9"
           inkscape:connector-curvature="0" />
        <path
           style="fill:url(#radialGradient5262);fill-opacity:1.0;fill-rule:evenodd;stroke:none"
           d="m 276.86166,487.36218 21.48874,-10.00001 36.71273,0 0,20.00001 -36.71273,0 -21.48874,-10 z"
           id="rect4860-9-2-3"
           inkscape:connector-curvature="0" />
        <path
           style="fill:url(#radialGradient5262);fill-opacity:1.0;fill-rule:evenodd;stroke:none"
           d="m 123.38004,487.36218 -21.48874,-10.00001 -36.712729,0 0,20.00001 36.712729,0 21.48874,-10 z"
           id="rect4860-9-2"
           inkscape:connector-curvature="0" />
        <path
           style="fill:url(#radialGradient5262);fill-opacity:1.0;fill-rule:evenodd;stroke:none"
           d="m 200,410.56365 -10.00001,-21.48874 0,-36.71273 20.00001,0 0,36.71273 -10,21.48874 z"
           id="rect4860-9-2-3-6"
           inkscape:connector-curvature="0" />
      </g>
      <path
         style="fill:url(#radialGradient4854);fill-opacity:1;fill-rule:evenodd;stroke:none"
         d="M 200 352.375 C 125.44156 352.375 65 412.81656 65 487.375 C 65 561.93344 125.44156 622.375 200 622.375 C 274.55844 622.375 335 561.93344 335 487.375 C 335 412.81656 274.55844 352.375 200 352.375 z M 200 372.375 C 263.51275 372.375 315 423.86225 315 487.375 C 315 550.88775 263.51275 602.375 200 602.375 C 136.48725 602.375 85 550.88775 85 487.375 C 85 423.86225 136.48725 372.375 200 372.375 z "
         id="path5077" />
      <g
         transform="translate(-7.1428569,-1.512495)"
         style="fill:url(#radialGradient5254);fill-opacity:1;fill-rule:nonzero"
         id="g5236">
        <path
           style="fill:url(#radialGradient5254);fill-opacity:1;fill-rule:nonzero;stroke:none"
           d="m 136.42857,507.36218 c 0.19112,-0.13891 0.76003,0.27492 1.72781,1.11831 0.48389,0.42169 1.06905,0.94891 1.77316,1.53592 0.7041,0.58701 1.52655,1.2352 2.5036,1.85594 1.24738,0.78649 2.7481,1.56071 4.42606,1.78837 1.18382,0.18242 2.52112,0.0809 3.88165,-0.30766 1.30434,-0.36734 2.657,-1.03238 4.09687,-1.86966 1.4566,-0.85303 2.94606,-1.87704 4.52648,-3.01846 1.58042,-1.14141 3.25143,-2.4009 5.10908,-3.67048 0,0 0,0 0,-1e-5 1.73175,-1.19936 3.61988,-2.39919 5.70505,-3.48954 2.08517,-1.09034 4.36737,-2.07148 6.89497,-2.79239 2.19348,-0.43791 4.18598,-0.0592 5.65124,0.84878 1.78415,1.01213 3.1999,2.29141 4.31282,3.55414 2.9276,3.21588 5.27663,6.93785 7.43764,10.6456 2.18916,3.7177 4.25512,7.60457 6.42718,11.48234 0.84542,1.50598 1.67875,2.97544 2.5677,4.35501 0.67392,0.99286 1.15151,1.78736 1.61462,2.165 0,0 0,10e-6 0,10e-6 -0.13119,-0.21869 -0.50998,-0.39181 -1.17348,-0.60501 -0.65286,-0.0576 -1.05837,-0.054 -1.26269,0.0778 0,0 0,0 0,0 -0.15102,0.21229 0.009,-0.19524 0.67828,-0.8247 1.65465,-2.01132 2.9159,-4.72499 4.37123,-7.7373 1.45135,-3.08886 2.80313,-6.35088 4.18007,-9.733 0.49818,-1.22565 1.00574,-2.49198 1.55142,-3.78886 0,-10e-6 1e-5,-10e-6 1e-5,-2e-5 0.18165,-0.43321 0.38251,-0.90186 0.61367,-1.40155 0.084,-0.22255 0.30537,-0.66632 0.70516,-1.30884 2.1994,-2.69484 4.66045,-3.95272 6.5665,-4.18466 2.48559,-0.63103 4.82687,-0.87043 6.92193,-1.03069 2.28264,-0.19712 4.44009,-0.32022 6.43681,-0.58788 1.74459,-0.29628 3.13544,-0.45142 3.89412,-0.94143 0,0 0,0 1e-5,-1e-5 1.81153,-0.84901 3.4612,-2.60064 5.07862,-4.65652 1.86035,-2.45583 3.35478,-5.37226 4.68009,-8.51796 2.85519,-6.84897 4.55991,-14.39866 5.19995,-22.19095 0.27063,-3.45496 0.32848,-6.87959 -0.0282,-10.20225 -0.0406,-0.3327 -0.0826,-0.6619 -0.12674,-0.98702 -0.31317,-2.30688 -0.73492,-4.38663 -1.5674,-6.04692 -0.36405,-0.71861 -0.69271,-1.3018 -1.04662,-1.6438 -0.28152,-0.26755 -0.51518,-0.47296 -0.66046,-0.49639 -0.11624,-0.0816 -0.4201,-0.0854 -0.78251,-0.0693 -0.53156,0.0178 -1.23986,0.31027 -2.09077,0.6945 0,0 -1e-5,0 -1e-5,0 -1.68144,0.74402 -3.24223,2.36574 -4.84361,4.23547 -1.7469,2.12301 -3.29633,4.6326 -4.95419,7.26808 -1.62262,2.61563 -3.34197,5.4068 -5.46258,8.12103 0,0 -1e-5,1e-5 -1e-5,1e-5 -1.83256,2.45396 -4.33289,4.89278 -7.67392,6.64962 -7.35005,3.59685 -14.31171,7.77681 -21.1789,11.82873 -6.86719,4.05192 -13.6401,7.9744 -20.48131,11.27942 -1.19919,0.56681 -2.47162,1.32123 -3.88377,2.10147 -1.83605,1.01993 -3.71552,2.03263 -5.66432,2.96146 -1.96953,0.94926 -4.09784,1.83134 -6.39741,2.45521 -1.84126,0.5989 -4.23641,0.87059 -6.91616,0.29751 -4.11674,-1.02655 -8.05122,-3.26454 -10.8887,-6.68126 -2.47929,-3.20004 -3.60649,-6.90696 -3.74159,-10.41592 -0.15906,-3.97764 0.64337,-7.63024 1.84276,-10.82963 1.35272,-3.67013 3.21262,-6.89915 5.31293,-9.65697 1e-5,0 1e-5,0 1e-5,0 2.1501,-2.85347 4.66742,-5.27899 7.40476,-7.04944 1.26704,-0.85551 2.66759,-1.54524 4.11642,-1.9914 1.44883,-0.44616 2.94606,-0.64922 4.42621,-0.57583 1.55315,0.11256 2.9775,0.59799 4.17959,1.32284 1.51412,0.93689 2.59101,2.12461 3.3709,3.30369 0,10e-6 0,10e-6 0,10e-6 1.20502,1.84288 1.87648,3.59929 2.31244,5.1377 0.43595,1.53842 0.63176,2.86273 0.73017,3.92923 0.0984,1.0665 0.0956,1.87809 0.0432,2.42758 -0.0524,0.54949 -0.15689,0.83826 -0.30495,0.86294 -0.29612,0.0494 -0.73181,-0.98075 -1.46756,-2.89172 -0.36787,-0.95549 -0.81462,-2.12893 -1.43697,-3.41534 -0.62235,-1.28642 -1.41604,-2.69013 -2.59629,-3.97822 0,-1e-5 0,-1e-5 0,-1e-5 -0.7195,-0.78906 -1.56084,-1.52379 -2.52472,-1.93726 -0.73355,-0.32995 -1.58586,-0.50497 -2.44207,-0.46892 -0.86114,-9.5e-4 -1.76366,0.2351 -2.6943,0.65702 -0.93065,0.42192 -1.88958,1.03017 -2.85282,1.72661 -2.04018,1.55402 -3.9021,3.70442 -5.59431,6.25852 -1e-5,0 -1e-5,0 -1e-5,0 -1.61711,2.47399 -3.00265,5.2915 -3.93232,8.38165 -0.79381,2.7043 -1.28814,5.55959 -0.98552,8.31318 0.26407,2.31076 1.04357,4.62387 2.51028,6.20464 1.52121,1.86408 4.1709,3.05401 7.10644,3.79053 0.48146,0.21723 1.476,-0.11065 2.84871,-0.41926 1.5679,-0.46817 3.19021,-1.23567 4.92388,-2.12067 1.66875,-0.86301 3.35946,-1.85157 5.11388,-2.89666 1.25904,-0.75606 2.64454,-1.62559 4.25187,-2.46204 6.36731,-3.29924 12.8069,-7.26628 19.56975,-11.45869 6.76284,-4.1924 13.84997,-8.60924 21.62718,-12.57602 1.44396,-0.63566 2.79936,-2.19277 4.30915,-4.0294 0,-10e-6 0,-10e-6 0,-10e-6 1.64175,-2.11552 3.12453,-4.62665 4.77471,-7.31012 1.61586,-2.66509 3.37522,-5.51877 5.60149,-8.32225 1.97748,-2.56784 4.61009,-5.08218 8.09459,-6.92114 1e-5,0 1e-5,-1e-5 2e-5,-1e-5 1.50717,-0.79481 3.32467,-1.42348 5.42781,-1.70109 1.73853,-0.21939 3.60402,-0.0213 5.46976,0.65849 1.76884,0.71195 3.24004,1.74413 4.36674,2.97843 1.24399,1.36217 2.15774,2.79903 2.79672,4.20169 1.39211,3.04442 2.1197,6.12767 2.47639,9.04309 0.0503,0.41088 0.0931,0.8179 0.12953,1.2205 0.42278,4.11795 0.36499,8.16081 0.0312,12.06157 -0.71841,8.73998 -2.73028,17.30258 -6.08387,25.19205 -1.5416,3.65977 -3.48501,7.27041 -6.00347,10.57939 -2.10849,2.84936 -4.92944,5.50839 -8.52626,7.36355 0,0 -1e-5,0 -2e-5,1e-5 -2.6357,1.20718 -5.05537,1.63908 -7.03115,1.79838 -2.45736,0.27776 -4.75202,0.37653 -6.87379,0.51748 -2.05621,0.15837 -3.85674,0.26804 -5.34214,0.65207 -1.07605,0.53034 -1.73227,0.45266 -1.21925,0.28739 0.0944,-0.18449 0.0847,-0.12597 -0.067,0.14755 -0.1621,0.32796 -0.32867,0.69704 -0.51005,1.10131 0,1e-5 0,1e-5 0,2e-5 -0.53267,1.19079 -1.05563,2.41557 -1.59585,3.66017 -1.47044,3.39153 -2.97564,6.77174 -4.62951,10.06599 -1.49223,3.04673 -3.23447,6.32211 -5.72628,9.31518 -0.67585,0.99356 -1.99726,2.20052 -4.07891,3.19123 -10e-6,10e-6 -2e-5,10e-6 -3e-5,10e-6 -0.89145,0.40884 -2.05533,0.54407 -3.43282,0.3491 -1.42143,-0.35688 -2.47898,-0.9619 -3.15305,-1.72347 -1e-5,0 -1e-5,-10e-6 -2e-5,-10e-6 -1.2805,-1.36598 -2.10954,-2.67472 -2.70906,-3.7483 -0.98744,-1.66534 -1.8442,-3.30268 -2.64741,-4.87367 -2.08866,-4.07444 -3.96494,-7.98116 -5.89315,-11.60523 -1.99748,-3.70734 -3.85206,-7.07977 -6.096,-9.75577 -0.89424,-1.02401 -1.64855,-1.87723 -2.4189,-2.31678 -0.51208,-0.21567 -0.84488,-0.4618 -0.79569,-0.36364 -2.01632,0.41507 -3.94949,1.11907 -5.80774,1.95545 -1.85826,0.83637 -3.64154,1.80539 -5.35397,2.79196 0,1e-5 -10e-6,1e-5 -10e-6,1e-5 -1.8035,1.05407 -3.55435,2.17338 -5.29445,3.21822 -1.74009,1.04485 -3.46901,2.01587 -5.19942,2.83292 -1.73149,0.82458 -3.542,1.46343 -5.35606,1.78618 -1.96019,0.34635 -3.87577,0.2258 -5.56358,-0.251 -2.33946,-0.69459 -4.04381,-1.9172 -5.31158,-3.09644 -1.96233,-1.81945 -3.0425,-3.49987 -3.68644,-4.66771 -0.64393,-1.16784 -0.83029,-1.85178 -0.63917,-1.99069 z"
           id="path5208"
           inkscape:path-effect="#path-effect5210"
           inkscape:original-d="m 136.42857,507.36218 c 14.30199,19.67718 23.84312,-1.31792 41.42857,-5.71428 8.31895,-2.07974 19.2022,27.77362 24.28572,32.85714 4.9903,4.9903 14.87275,-23.38056 16.42857,-25.71429 2.9351,-4.40266 16.41705,-2.13709 22.14286,-5 19.94079,-9.97039 26.06032,-73.74445 4.28571,-62.85714 -9.87838,4.93919 -13.82778,21.91389 -22.85714,26.42857 -14.02592,7.01296 -27.22863,16.47146 -41.42857,23.57143 -4.07635,2.03817 -14.47544,9.23829 -20,7.85714 -33.00602,-8.2515 10.82234,-68.63734 17.85714,-26.42857"
           inkscape:connector-curvature="0" />
        <g
           style="fill:url(#radialGradient5254);fill-opacity:1;fill-rule:nonzero"
           id="g5230">
          <path
             inkscape:connector-curvature="0"
             inkscape:original-d="m 147.85714,465.93361 c 0,6.42857 0,12.85714 0,19.28571 0,30.51571 20.98987,-7.58156 32.14286,3.57143 7.00832,7.00832 -0.27768,25.43661 6.42857,32.14286 5.15867,5.15867 16.74206,-9.68651 21.42857,-5 6.8499,6.8499 19.43578,65.41416 46.42857,11.42857 5.07248,-10.14495 -22.42985,-14.7194 -25,-25 -3.0127,-12.05082 14.8111,-30.90319 5.71429,-40 -11.0141,-11.0141 -40.7752,-5 -55,-5 -4.15047,0 -9.95985,-25.04015 -15.71429,-19.28571 -8.24104,8.24105 -1.01764,21.69277 -16.42857,27.85714 z"
             inkscape:path-effect="#path-effect5206"
             id="path5204"
             d="m 147.85714,465.93361 c -0.0812,6.42857 -0.16251,12.85714 -0.24376,19.28571 -0.0388,2.84988 1.5e-4,5.77217 0.83189,8.56254 0.24405,0.82384 0.58337,1.64897 1.11723,2.37495 0.40261,0.54752 0.94044,1.01643 1.59181,1.30162 0.62391,0.26399 1.29946,0.34369 1.94776,0.29292 0.75135,-0.0574 1.47103,-0.2544 2.14767,-0.50662 1e-5,-1e-5 2e-5,-1e-5 2e-5,-1e-5 1.71906,-0.63791 3.27877,-1.58655 4.78159,-2.53984 3.51072,-2.2154 6.80998,-4.73141 10.51048,-6.26214 1e-5,-1e-5 1e-5,-1e-5 2e-5,-1e-5 1.58898,-0.64989 3.24105,-1.12995 4.83615,-1.01023 1.51349,0.09 2.97792,0.83459 4.04783,1.93242 1.64788,1.64568 2.33833,4.11949 2.69109,6.59195 0.38916,2.92692 0.27103,5.94229 0.18448,9.00119 -0.0932,3.02372 -0.22453,6.12242 0.14763,9.25995 0.27655,2.62554 1.08283,5.43991 3.10482,7.59032 0.78563,0.7947 1.81622,1.31052 2.93533,1.45924 0,0 1e-5,0 2e-5,0 1.15427,0.12876 2.24205,-0.0499 3.19592,-0.35522 0,0 10e-6,0 10e-6,0 2.36997,-0.7336 4.42302,-1.97199 6.35012,-3.11174 1.97085,-1.14032 3.80646,-2.31427 5.71764,-2.94983 0.73439,-0.22947 1.40047,-0.40616 1.94745,-0.33338 0.40899,0.0358 0.8265,0.22337 1.07106,0.50195 0.38757,0.38337 0.71901,0.94021 1.09775,1.56926 0,10e-6 0,10e-6 1e-5,2e-5 0.50065,0.85847 0.95138,1.77527 1.40082,2.72219 1.17223,2.47509 2.24378,5.03237 3.37986,7.60129 0,0 0,0 0,10e-6 2.51868,5.74182 5.19697,11.68094 9.37862,16.80483 0,10e-6 1e-5,10e-6 1e-5,2e-5 1.72538,2.14792 3.90804,4.18225 6.71706,5.44558 1.28804,0.56219 2.69697,0.896 4.15546,0.94085 1.56711,0.0336 3.09064,-0.26003 4.48691,-0.79802 0,0 1e-5,-10e-6 1e-5,-10e-6 3.85955,-1.53471 6.82522,-4.33753 9.18487,-7.20377 0,-10e-6 0,-10e-6 0,-10e-6 4.05668,-4.80063 7.17353,-10.21022 9.9499,-15.62093 0,0 1e-5,-10e-6 1e-5,-2e-5 0.80904,-1.52329 1.12105,-3.37229 0.72583,-5.28605 -0.48634,-1.8242 -1.42477,-3.28051 -2.48178,-4.35498 -2.6859,-2.82982 -5.88906,-4.666 -8.77923,-6.29797 -3.297,-1.91828 -6.53953,-3.63492 -9.33886,-5.69703 -1.21423,-0.90241 -2.31377,-1.80256 -3.14132,-2.79969 -0.67295,-0.84728 -1.209,-1.66121 -1.33206,-2.40513 -0.67376,-2.40838 0.0875,-5.34165 0.98265,-8.42126 1.12123,-3.51902 2.75095,-7.02623 4.29086,-10.7545 1.43981,-3.38637 2.90587,-7.11938 3.44939,-11.34898 0,-10e-6 0,-10e-6 0,-2e-5 0.23596,-1.80936 0.18831,-3.79244 -0.32589,-5.83568 -0.55227,-2.04235 -1.61709,-3.89741 -3.08967,-5.39978 -3.73683,-3.65962 -8.45051,-5.59792 -12.94768,-6.53336 -5.33844,-1.19949 -10.69997,-1.49093 -15.87712,-1.4762 -5.38932,0.001 -10.70233,0.32809 -15.93135,0.67675 -4.3989,0.28715 -8.64384,0.65275 -12.72646,0.5898 1.66233,0.57 2.22221,0.51281 1.62035,0.42219 0,0 0,0 -1e-5,0 -0.37488,-0.42561 -0.74047,-1.14976 -1.23989,-2.05756 -1.25338,-2.38733 -2.35465,-5.06509 -3.67404,-7.86367 -1.06642,-2.41609 -2.43193,-5.28053 -4.80852,-8.03058 -1e-5,0 -1e-5,-1e-5 -2e-5,-2e-5 -0.67751,-1.02536 -2.19755,-2.10476 -4.62198,-2.81638 -2.86131,-0.19572 -5.02072,0.61449 -6.22166,2.05445 -2.5826,2.62888 -4.24375,5.75911 -5.13545,8.90467 0,0 -1e-5,10e-6 -1e-5,2e-5 -0.86953,2.97973 -1.2733,5.70122 -1.81638,7.99619 0,0 0,0 0,0 -0.59471,2.26083 -1.22689,4.2523 -2.29544,5.55307 -0.85798,2.47231 -2.74614,4.50619 -4.87805,6.31406 0.30933,0.77334 0.61875,1.54688 0.92824,2.32061 l 0,0 c 0.30949,0.77373 0.61891,1.54727 0.92824,2.32061 4.02208,-0.65372 7.93585,-2.3612 10.94106,-5.27469 2.03918,-3.03181 3.12644,-6.21438 3.69144,-9.15781 0,-1e-5 0,-2e-5 0,-3e-5 0.60546,-2.85916 0.89402,-5.39763 1.48178,-7.49338 0,0 0,-10e-6 0,-10e-6 0.59112,-2.01879 1.40084,-3.84994 2.61753,-5.02035 -0.0651,0.30412 -0.62511,0.30846 -1.90738,0.40751 -0.71593,-0.39268 -0.83836,-0.25025 -0.33758,0.002 0,0 0,0 1e-5,0 1.27571,1.21015 2.22328,3.33778 3.51004,5.76783 1.26158,2.51668 2.49048,5.27995 4.04303,8.09265 0.53908,1.01676 1.25864,2.21132 2.29267,3.45825 0,10e-6 0,2e-5 0,3e-5 0.25975,0.93219 1.88237,1.98157 4.88202,2.55157 4.63183,-0.063 9.07697,-0.54681 13.3655,-0.94541 5.1951,-0.47419 10.31823,-0.92483 15.38472,-1.04861 4.91205,-0.10598 9.7108,-0.002 14.23493,0.92873 3.7483,0.84523 7.30423,2.01706 9.53224,4.32228 0.64636,0.61657 1.15059,1.42648 1.39568,2.27274 0.30043,0.90794 0.31955,2.04294 0.23116,3.2779 0,1e-5 0,1e-5 0,2e-5 -0.23197,3.0489 -1.46585,6.23947 -2.74422,9.64937 -1.39167,3.60157 -2.99117,7.32315 -4.18428,11.35161 -1.1019,3.43314 -1.79799,7.48785 -0.81958,11.68814 0.55214,1.95689 1.54759,3.56691 2.70829,4.8144 1e-5,0 1e-5,10e-6 2e-5,10e-6 1.32186,1.45836 2.7803,2.62615 4.22601,3.61426 3.3091,2.27939 6.75297,4.01147 9.98542,5.77122 2.94745,1.65635 5.76316,3.07948 7.67904,5.11941 0.65463,0.73682 1.20019,1.39816 1.30308,1.99538 0.18441,0.4682 0.038,1.17505 -0.24926,1.84443 -1e-5,10e-6 -1e-5,10e-6 -1e-5,2e-5 -2.59572,5.33346 -5.37381,10.50649 -8.97792,14.95837 -2.18368,2.62107 -4.47256,5.055 -7.24487,6.12236 -1e-5,10e-6 -1e-5,10e-6 -2e-5,10e-6 -0.93767,0.37775 -1.91495,0.60678 -2.85465,0.59822 -1e-5,0 -1e-5,0 -1e-5,0 -0.87257,0.006 -1.77709,-0.19016 -2.63784,-0.53247 -1.97202,-0.74916 -3.70783,-2.36686 -5.32622,-4.18475 -3.89431,-4.45442 -6.55523,-10.0635 -9.24596,-15.71586 -1.1815,-2.50013 -2.331,-5.05748 -3.60791,-7.58919 -0.48707,-0.9676 -1.00522,-1.95194 -1.60082,-2.92121 0,0 0,-1e-5 0,-1e-5 -0.40924,-0.68471 -0.91396,-1.43142 -1.60964,-2.1313 -0.84102,-0.807 -1.91565,-1.26804 -3.03836,-1.33627 -1.18395,-0.0448 -2.24351,0.20985 -3.14292,0.56397 -2.31439,0.8738 -4.28222,2.17366 -6.15702,3.34516 -1.94273,1.1866 -3.76455,2.38441 -5.70159,3.00619 -0.7613,0.23447 -1.4844,0.40323 -2.11577,0.32081 0,0 -1e-5,0 -1e-5,-1e-5 -0.53962,-0.0475 -1.08848,-0.30246 -1.48392,-0.68883 -1.54588,-1.41745 -2.2032,-3.76543 -2.59141,-6.14163 -0.42749,-2.87904 -0.36781,-5.87952 -0.35816,-8.9244 0,0 0,0 0,-1e-5 0.017,-3.04952 0.0501,-6.17688 -0.43457,-9.29644 -0.39019,-2.66816 -1.32013,-5.45278 -3.34498,-7.47983 -1.36487,-1.33695 -3.19353,-2.18689 -5.1187,-2.27551 -1.94249,-0.064 -3.78897,0.49984 -5.45228,1.25383 -3.86516,1.73504 -7.14311,4.35775 -10.54214,6.63233 -1.47243,0.98004 -2.94316,1.93443 -4.53756,2.56572 -10e-6,0 -10e-6,0 -10e-6,0 -0.62428,0.24608 -1.25727,0.44182 -1.89403,0.50218 -0.53977,0.05 -1.08516,0.007 -1.56161,-0.18799 0,0 0,0 0,-10e-6 -0.50064,-0.19555 -0.94214,-0.56805 -1.29491,-1.01432 -0.47849,-0.60584 -0.80021,-1.34884 -1.05653,-2.12131 -0.87062,-2.64056 -0.97665,-5.51058 -1.0155,-8.35218 -0.0812,-6.42857 -0.16251,-12.85714 -0.24376,-19.28571 z"
             style="fill:url(#radialGradient5254);fill-opacity:1;fill-rule:nonzero;stroke:none" />
          <path
             inkscape:connector-curvature="0"
             inkscape:original-d="m 200,429.50504 c -60.61703,-26.87021 -44.28629,96.78543 -32.14286,102.85714 13.78497,6.89249 86.42857,5.85611 86.42857,-18.57143 0,-6.75712 -4.14126,-12.78491 -10,-15.71428 -18.54572,-9.27287 -77.66752,-1.95324 -80.71428,-5 -2.09817,-2.09817 3.66869,-5.90881 4.28571,-7.14286 3.87501,-7.75001 16.60193,-20.71429 25,-20.71429 4.76786,0 19.05357,0.71429 14.28572,0.71429 -2.38096,0 -4.76191,0 -7.14286,0"
             inkscape:path-effect="#path-effect5214"
             id="path5212"
             d="m 200,429.50504 c -0.11624,0.26222 -1.11141,0.10413 -2.92288,-0.30226 -0.90574,-0.2032 -2.01673,-0.46487 -3.327,-0.72771 -1.31028,-0.26284 -2.82008,-0.52796 -4.51998,-0.6967 -2.41571,-0.23781 -5.23302,-0.31098 -8.18241,0.3283 -2.09149,0.44762 -4.27528,1.26636 -6.2909,2.57921 -1e-5,0 -1e-5,0 -1e-5,0 -1.76275,1.13613 -3.42993,2.68011 -4.91551,4.54531 -1.47961,1.83779 -2.75647,3.98724 -3.84705,6.40525 -1.09057,2.41801 -1.99447,5.10518 -2.77481,7.961 -1.54446,5.78699 -2.38557,12.26276 -2.73522,19.25107 -0.32171,6.60182 -0.16517,13.60784 0.45173,20.92625 0.53246,6.28055 1.3923,12.75776 2.72975,19.33111 1.00682,4.89415 2.1644,9.75894 3.9731,14.32435 0.61289,1.51655 1.19895,2.88403 1.91954,3.97167 0.25886,0.38161 0.45292,0.66622 0.61326,0.81125 0.15206,0.0956 0.0833,0.0882 -0.18725,-0.10539 1.58871,0.83899 3.80592,1.20338 6.3817,1.69384 1e-5,0 1e-5,0 2e-5,0 3.54868,0.60376 7.25711,0.9227 11.08467,1.12057 9.17454,0.4633 18.63509,0.13891 28.17964,-1.05265 4.20439,-0.55094 8.39362,-1.19608 12.44906,-2.12798 4.42989,-1.01794 8.62509,-2.36535 12.45504,-4.25755 2.79391,-1.42258 5.27385,-2.91268 6.83273,-4.82544 1e-5,0 1e-5,0 1e-5,0 1.22588,-1.47048 2.05633,-3.27986 1.98868,-4.86779 0.0845,-2.26131 -0.7045,-4.59905 -2.01926,-6.62274 -1.31477,-2.0237 -3.15516,-3.73312 -5.20723,-4.77896 -2.1229,-1.12282 -4.70137,-1.78991 -7.4619,-2.40753 -3.51315,-0.75432 -7.12539,-1.19777 -10.76512,-1.53496 -8.7742,-0.80734 -17.39699,-0.8846 -25.71404,-0.87072 -10e-6,0 -10e-6,0 -2e-5,0 -8.05329,0.0163 -15.83328,0.21581 -23.25685,0.20676 -2.62435,-4.3e-4 -5.29978,-0.0143 -7.99077,-0.21638 -0.84214,-0.0568 -1.80704,-0.15378 -2.86786,-0.36602 -0.34956,-0.0632 -0.80776,-0.18549 -1.36127,-0.38828 -0.33583,-0.0515 -0.93792,-0.413 -1.75999,-1.11562 -1.52316,-1.96862 -1.83775,-4.01952 -1.10355,-5.74768 0.69121,-1.54375 1.50391,-2.5689 2.19559,-3.20191 0.77323,-0.80246 1.51086,-1.45789 2.1577,-2.03623 0,0 0,-1e-5 1e-5,-1e-5 0.6005,-0.68865 0.8722,-0.71915 0.53636,-0.33658 0,10e-6 0,10e-6 0,10e-6 1.45436,-2.72256 3.1994,-5.00253 4.93571,-7.00913 2.23817,-2.61204 4.60044,-4.91376 6.99929,-6.92185 2.55274,-2.14895 5.2359,-4.00764 8.00143,-5.40631 2.46356,-1.30796 5.31031,-2.208 8.183,-2.16055 4.15831,0.19174 7.75292,0.59443 10.80616,0.95233 1.4462,0.16915 2.81258,0.33307 4.0598,0.54543 0,10e-6 0,10e-6 1e-5,2e-5 0,0 0,0 0,0 0.17526,0.49613 0.38548,0.98073 0.62402,1.46348 0,0 0,0 0,0 0,0 0,1e-5 -1e-5,2e-5 -0.0573,0.13115 -0.0988,0.25665 -0.1277,0.38483 -0.005,0.0219 -0.008,0.0434 -0.0157,0.0682 -0.007,0.0217 -0.0208,0.0408 -0.0321,0.0593 -0.23326,0.38403 -0.33481,0.68529 -0.30471,0.96134 -0.26103,-0.0115 -0.50131,-0.031 -0.72409,-0.0512 C 202.48683,466.83739 200,466.3927 200,465.93361 c 0,-0.45909 2.48683,-0.90378 7.14286,-1.32618 0.21929,-0.0203 0.43097,-0.0403 0.63124,-0.0673 0.2112,0.26999 0.3004,0.59229 0.24118,0.916 -0.003,0.0156 -0.004,0.031 -0.0123,0.0439 -0.01,0.0147 -0.0254,0.033 -0.0399,0.0512 -0.0847,0.1067 -0.18649,0.22497 -0.3031,0.34673 -1e-5,0 -1e-5,10e-6 -2e-5,2e-5 0,0 0,0 0,0 -0.0306,0.44008 -0.0953,0.90099 -0.19781,1.3721 0,0 0,0 0,0 0,0 0,10e-6 0,10e-6 -1.18344,-0.007 -2.50106,0.0312 -3.97368,0.0544 -3.07369,0.0515 -6.65071,0.0463 -10.63135,0.23804 -1.69787,0.0474 -3.56328,0.95653 -5.62552,2.13296 -2.21386,1.33474 -4.38987,3.11488 -6.58234,5.20196 -2.03787,1.95254 -4.02621,4.14814 -5.88834,6.59266 -1.45547,1.92957 -2.82742,3.90312 -3.78437,6.00316 0,1e-5 -1e-5,2e-5 -1e-5,3e-5 -0.87563,1.46216 -1.62659,2.19413 -1.91362,2.34665 0,0 0,0 0,0 -0.65575,0.65621 -1.25143,1.23076 -1.7144,1.77528 -0.43779,0.59768 -0.74629,0.89011 -0.65832,0.93364 0.26959,-0.50562 0.088,-1.05988 -0.49896,-2.09228 -0.5779,-0.45845 -0.85451,-0.67373 -0.86606,-0.60345 -0.0649,-0.0193 -0.0111,-0.0233 0.1544,0.0123 0.49464,0.0861 1.12563,0.10621 1.88711,0.13977 2.33268,0.081 4.80308,-0.0147 7.42259,-0.1097 7.2966,-0.27444 15.04925,-0.73463 23.25525,-0.98803 1e-5,0 1e-5,0 1e-5,0 8.41057,-0.2636 17.30676,-0.3906 26.6102,0.26928 3.85789,0.27133 7.84579,0.69767 11.91338,1.49021 3.13625,0.58561 6.50537,1.474 9.87386,3.09688 3.68244,1.82141 6.82658,4.62185 9.07828,8.07597 2.2517,3.45412 3.61074,7.56175 3.69523,11.95089 -0.0677,4.28808 -1.65902,8.26275 -4.30796,11.32032 0,10e-6 -10e-6,10e-6 -10e-6,2e-5 -2.93914,3.34355 -6.48415,5.68501 -10.00252,7.33925 -4.68246,2.25705 -9.58198,3.86903 -14.55188,5.04276 -4.54981,1.07451 -9.0883,1.76899 -13.50195,2.28034 -10.14368,1.23528 -20.20126,1.50828 -29.94766,0.91097 -4.06397,-0.24449 -8.15456,-0.6569 -12.21229,-1.396 0,-10e-6 -1e-5,-10e-6 -1e-5,-10e-6 -2.72216,-0.44486 -5.82172,-1.14663 -8.96131,-2.67179 -1.14851,-0.63251 -1.96703,-1.29812 -2.48373,-1.91644 -0.72309,-0.7981 -1.27871,-1.57088 -1.70257,-2.27955 -1.18003,-1.94759 -2.0053,-3.87022 -2.65135,-5.65645 -1.99752,-5.42012 -3.18562,-10.81335 -4.09361,-15.96879 -1.25058,-7.00944 -1.96988,-13.8543 -2.31889,-20.44135 -0.41043,-7.67849 -0.30302,-15.07003 0.3228,-22.04176 0.65212,-7.3624 1.92514,-14.34378 3.95713,-20.62862 0.98609,-3.10654 2.20466,-6.08948 3.67187,-8.81398 1.4672,-2.7245 3.18254,-5.19108 5.12152,-7.32733 1.99973,-2.18641 4.2739,-3.95251 6.65745,-5.23023 0,0 0,-1e-5 1e-5,-1e-5 2.753,-1.46329 5.56573,-2.21995 8.17587,-2.49685 3.65616,-0.37864 6.82347,0.0867 9.4159,0.73717 1.81838,0.45529 3.36989,1.00138 4.67714,1.53968 1.30726,0.5383 2.37036,1.0699 3.20487,1.53907 1.669,0.93833 2.43191,1.61165 2.31567,1.87387 z"
             style="fill:url(#radialGradient5254);fill-opacity:1;fill-rule:nonzero;stroke:none" />
        </g>
        <path
           style="fill:url(#radialGradient5254);fill-opacity:1;fill-rule:nonzero;stroke:none"
           d="m 231.42857,442.36218 c -0.0121,0.18363 -0.94212,0.29149 -2.73484,0.40652 -1.79271,0.11503 -4.45329,0.23701 -7.90152,0.60018 -3.44824,0.36317 -7.69218,0.9655 -12.52594,2.21027 -4.83375,1.24477 -10.26674,3.12894 -15.83476,6.26347 0,0 -1e-5,10e-6 -1e-5,10e-6 -2.55833,1.43672 -5.13227,3.14751 -7.60999,5.17797 -2.47771,2.03046 -4.85963,4.3807 -6.99197,7.09105 -3.91747,4.95405 -6.98885,11.19366 -8.63149,18.2286 0,10e-6 0,10e-6 0,2e-5 -0.77803,3.10203 -0.37196,6.74013 0.0242,10.74744 0.45086,3.77958 1.01753,8.01339 0.35372,12.65617 -1.05296,6.82761 -2.73602,13.66841 -3.8896,20.64139 -1.0514,6.51653 -1.74207,13.22715 -0.63086,19.70465 0.96966,5.73512 2.08178,11.44811 4.43612,16.53367 0.72891,1.56191 1.5048,2.99426 2.46161,4.12748 10e-6,0 10e-6,10e-6 2e-5,10e-6 0.71137,0.82252 1.42387,1.50952 2.1517,1.85484 0,0 1e-5,0 1e-5,10e-6 0.57283,0.30355 1.24853,0.47827 1.90151,0.4912 0,0 1e-5,0 1e-5,0 0.7111,0.0413 1.5518,-0.14753 2.46218,-0.43776 2.31093,-0.72765 4.57253,-2.39589 6.98323,-4.30063 2.80924,-2.28777 5.47613,-4.95975 8.18629,-7.7891 2.77029,-2.90039 5.52437,-5.96332 8.40554,-9.06215 2.52272,-2.72127 5.18107,-5.53364 8.19744,-8.19907 2.07977,-1.94486 4.75957,-4.043 8.37637,-5.37929 1e-5,-10e-6 2e-5,-10e-6 4e-5,-2e-5 8.1317,-2.74286 16.55112,-4.32077 24.84034,-5.88108 8.27549,-1.58241 16.53454,-3.12812 24.36237,-5.79649 -0.58025,0.16682 -1.08407,0.57711 -1.5944,1.25924 -0.31807,0.67883 -0.47662,1.02044 -0.40391,1.09814 10e-6,0 10e-6,0 10e-6,10e-6 0.10979,-0.0837 -0.18499,-0.67855 -0.46869,-1.77263 0,-1e-5 -1e-5,-2e-5 -1e-5,-3e-5 -1.04966,-3.09848 -2.79818,-6.25159 -4.58047,-9.72948 -1.95775,-3.76625 -4.04909,-7.68081 -5.86923,-11.93473 -0.75694,-1.75232 -1.48716,-3.67183 -2.03694,-5.79206 -0.46595,-1.49465 -0.74494,-3.50467 -0.44487,-5.94753 0.55277,-3.25177 1.51482,-6.23729 2.54854,-8.98725 1.25839,-3.40063 2.67569,-6.68173 4.10556,-9.8917 3.16943,-7.13265 6.50657,-14.10374 9.24515,-21.20937 2.42873,-6.46581 4.64981,-12.80197 4.71904,-18.96756 0.0207,-2.43523 -0.20802,-4.74072 -1.0168,-6.60749 -0.69665,-1.76581 -1.98795,-3.38762 -3.57497,-4.576 -10e-6,-1e-5 -10e-6,-1e-5 -2e-5,-2e-5 -2.97826,-2.09492 -6.07163,-3.77403 -8.94244,-3.75361 -2.27697,-0.17929 -4.82506,0.76879 -7.12606,2.21979 -1e-5,10e-6 -2e-5,10e-6 -3e-5,2e-5 -2.71516,1.73147 -5.10136,4.36912 -7.42277,7.31739 -1e-5,10e-6 -1e-5,2e-5 -2e-5,3e-5 -2.55826,3.30644 -4.8087,6.9977 -6.97986,10.86809 -0.61198,1.09438 -1.21315,2.20239 -1.80729,3.32195 -1.50069,2.82783 -2.94941,5.71563 -4.40768,8.6282 -1.74771,3.49961 -3.52265,7.11808 -5.58164,10.70837 -1e-5,10e-6 -1e-5,3e-5 -2e-5,4e-5 -1.20798,2.32839 -2.95501,5.2124 -5.96519,7.80164 -0.96781,0.98564 -2.73003,1.7673 -5.22452,2.01985 -2.65336,-0.21495 -4.57985,-1.13345 -5.6595,-2.43675 -0.99712,-1.01714 -1.77626,-1.99941 -2.41124,-2.87126 -1e-5,-1e-5 -2e-5,-2e-5 -3e-5,-3e-5 -0.91055,-1.22507 -1.74013,-2.44193 -2.52367,-3.62416 -1e-5,-10e-6 -2e-5,-2e-5 -2e-5,-3e-5 -2.0752,-3.12648 -4.01489,-6.24634 -5.94234,-9.28057 -4.83534,-7.59377 -9.64067,-14.9473 -15.06401,-21.52234 -2.67188,-3.23461 -5.42637,-6.25599 -8.41505,-8.8371 -2.64754,-2.25042 -5.31701,-4.18912 -8.11199,-5.27531 -2.37275,-0.90916 -4.85164,-1.34129 -6.9379,-0.8531 -1e-5,0 -2e-5,0 -3e-5,0 -2.493,0.39082 -4.96921,2.14707 -7.23457,4.28552 -1.70615,1.67624 -2.9828,3.8551 -3.67896,6.17102 -0.7837,2.48939 -0.91334,5.32614 -0.74052,8.24859 0.43266,7.17632 3.0238,14.33575 5.86775,21.49148 3.15737,7.81582 6.91431,15.4132 10.46794,23.10462 1.61372,3.48616 3.20642,7.02566 4.62872,10.66882 1e-5,10e-6 1e-5,2e-5 2e-5,3e-5 1.18061,2.9912 2.28018,6.18383 2.96432,9.6137 0.63868,3.21753 0.46069,6.59156 -0.58822,9.78069 -1.06625,3.05621 -2.74011,5.65439 -4.66847,7.78606 -4.33014,4.77981 -9.43373,8.01394 -14.15921,10.82438 -4.6689,2.86247 -9.13896,5.17769 -12.55252,8.1604 -1.25282,1.15904 -2.30112,2.14095 -2.67755,3.11319 -0.31435,0.60234 -0.37935,1.44632 -0.15501,2.07089 -0.048,-0.0907 -0.0723,-0.0826 -0.21002,-0.19357 0.004,0.10753 0.43453,0.0971 1.10737,0.17422 1.9713,0.0895 4.23412,-0.66998 6.72249,-1.50389 2.61865,-0.93595 5.16677,-2.10243 7.65479,-3.39513 10e-6,0 2e-5,0 2e-5,-10e-6 0.9831,-0.51264 1.93477,-1.03379 2.84561,-1.57782 10e-6,0 2e-5,-10e-6 2e-5,-10e-6 0.61674,-0.38027 1.10183,-0.65431 1.40092,-0.89961 0,0 0,0 1e-5,-1e-5 6.52451,-5.11579 12.30026,-10.76789 17.32973,-16.69076 5.02947,-5.92286 9.31297,-12.11671 12.89225,-18.36837 1.72619,-2.95911 2.81769,-6.35198 3.77991,-9.80763 0.81135,-3.02045 1.52859,-6.34 2.94052,-9.59409 0.61039,-1.424 1.46364,-2.85914 2.63443,-4.1576 1e-5,-1e-5 2e-5,-1e-5 2e-5,-2e-5 1.22091,-1.31527 2.71722,-2.2964 4.34945,-2.89523 2.47509,-0.8093 4.88148,-0.96776 7.13547,-0.79581 2.25399,0.17195 4.35565,0.6745 6.23944,1.23952 2.38804,0.61676 4.576,1.85135 6.30409,3.5649 0.90086,0.84302 1.68603,2.00551 2.15049,3.45112 0.42921,1.59952 0.23294,3.19443 -0.46512,4.54511 -0.40375,0.75129 -0.81918,1.30852 -1.15933,1.72979 -0.56943,0.73879 -1.14646,1.42724 -1.7108,2.08349 -1.54392,1.79737 -3.08968,3.47653 -4.59229,5.08078 -2.86897,3.06508 -5.6297,5.95136 -8.35004,8.54162 -0.33058,0.23838 -0.57693,0.81058 -0.8836,1.48804 -0.36666,0.90465 -0.59893,1.89103 -0.77957,2.89973 -0.42639,2.46691 -0.46643,4.84479 -0.16406,7.0123 0.15112,1.03511 0.35429,1.9778 0.69916,2.78378 0.31562,0.65697 0.59745,1.20568 0.97166,1.43083 0.22961,0.22939 0.70808,0.27126 1.12663,0.18664 0.88845,-0.17099 1.72095,-0.87959 2.53489,-1.58193 0.10851,-0.30233 0.25789,-0.20196 0.13132,0.21871 0,10e-6 0,2e-5 1e-5,2e-5 0.32629,0.47299 0.32041,0.6153 0.26317,0.43711 -0.69711,-0.30631 -1.65296,-0.21874 -2.59997,-0.24111 0,0 0,0 0,0 -1.59504,-0.01 -2.97315,0.0475 -4.09856,0.057 -1.16905,0.0103 -2.0817,-0.01 -2.68859,-0.0847 -0.6069,-0.0746 -0.91059,-0.18498 -0.91059,-0.2903 0,-0.10532 0.30012,-0.20402 0.8804,-0.33587 0.58027,-0.13186 1.43737,-0.31535 2.60056,-0.5277 1.10093,-0.20297 2.46181,-0.45256 4.11834,-0.63832 0,0 0,0 0,-10e-6 0.87762,-0.12107 1.9756,-0.30778 3.32556,0.0127 0.38377,-0.0432 0.89808,0.33784 1.29538,1.28111 0,1e-5 1e-5,2e-5 1e-5,3e-5 -0.0395,0.99717 -0.37588,1.60826 -0.69488,1.73343 -0.78829,0.89991 -1.8361,1.88171 -3.40312,2.45318 -1.0268,0.35242 -2.24368,0.30668 -3.37482,-0.32865 -1.01992,-0.6608 -1.73748,-1.58764 -2.16731,-2.52284 -0.55091,-1.10732 -0.91425,-2.30074 -1.15139,-3.49624 -0.50793,-2.48776 -0.63662,-5.22887 -0.29624,-8.07875 0.13444,-1.17612 0.36579,-2.417 0.79066,-3.68724 0.27485,-0.92037 0.76656,-1.97282 1.67875,-2.9772 2.50513,-2.63521 5.07024,-5.58086 7.79586,-8.75138 1.41585,-1.6486 2.85269,-3.34345 4.25719,-5.11745 0.5153,-0.65149 1.01543,-1.29615 1.47663,-1.94727 0.31312,-0.45976 0.56494,-0.79189 0.65786,-1.03394 0.12638,-0.2982 0.16704,-0.67648 0.0535,-0.8782 -0.0717,-0.33371 -0.44086,-0.7332 -0.90097,-1.20863 -1.06185,-0.98922 -2.49269,-1.7042 -4.02018,-2.06633 -1.82936,-0.36326 -3.65815,-0.7385 -5.37312,-0.87559 -1.71496,-0.13709 -3.31617,-0.0362 -4.66943,0.60397 -0.775,0.3126 -1.49518,0.82054 -2.0342,1.45357 0,0 0,10e-6 -1e-5,10e-6 -0.58535,0.64567 -1.04811,1.54955 -1.48833,2.58082 -1.04876,2.49655 -1.56566,5.50727 -2.38967,8.80721 -0.89094,3.70648 -2.0762,7.61235 -4.10885,11.41916 -3.60697,6.68358 -7.97609,13.3294 -13.16446,19.71285 -5.18837,6.38345 -11.19634,12.50471 -18.04214,18.08516 -1e-5,1e-5 -2e-5,1e-5 -3e-5,2e-5 -0.81533,0.64623 -1.55832,1.11745 -2.16627,1.48454 -1e-5,10e-6 -2e-5,10e-6 -3e-5,2e-5 -1.05942,0.65831 -2.13018,1.27187 -3.20125,1.85387 -1e-5,10e-6 -2e-5,10e-6 -3e-5,2e-5 -2.69893,1.47137 -5.54346,2.82904 -8.55369,3.96976 -2.66704,1.06809 -5.8076,2.03658 -9.43179,2.12773 -1.37567,0.0778 -3.05438,-0.20154 -4.87179,-1.06065 -1.76748,-0.97599 -3.04764,-2.49145 -3.68247,-4.34258 -0.86138,-2.63257 -0.7302,-5.45772 0.3977,-8.01045 1.24163,-2.56745 2.96003,-4.50448 4.67346,-5.93319 4.34708,-3.7876 9.17854,-6.46253 13.52996,-9.15702 4.56997,-2.916 9.0055,-5.68667 12.07301,-9.34189 1.3035,-1.5534 2.37696,-3.17182 2.86974,-4.82139 0.54217,-1.61336 0.59126,-3.48681 0.22657,-5.28615 -0.52059,-2.59381 -1.5009,-5.25831 -2.61029,-8.05386 -1e-5,-1e-5 -1e-5,-2e-5 -1e-5,-3e-5 -1.34228,-3.34285 -2.89683,-6.69439 -4.51826,-10.11533 -3.57127,-7.52036 -7.4542,-15.20846 -10.86594,-23.42319 -3.10927,-7.37185 -5.98545,-15.44739 -6.7241,-24.33226 -0.3119,-3.72424 -0.0865,-7.69141 1.04004,-11.65546 1.12156,-3.82506 3.1816,-7.37119 6.04497,-10.26447 3.05799,-3.1849 7.14274,-5.8405 12.09979,-6.97456 1e-5,0 3e-5,0 5e-5,-10e-6 4.36863,-0.83298 8.70986,-0.25769 12.50509,1.30281 4.1902,1.71068 7.79416,4.19453 10.89364,6.90639 3.56005,3.0734 6.71483,6.47774 9.60726,9.98012 5.88786,7.12 10.96021,14.79253 15.84696,22.45777 1.97138,3.08506 3.88243,6.14635 5.85445,9.10185 0,1e-5 1e-5,2e-5 2e-5,3e-5 0.74681,1.11751 1.47574,2.18718 2.22111,3.18179 1e-5,1e-5 1e-5,2e-5 2e-5,3e-5 0.57277,0.74709 1.03995,1.36604 1.47362,1.77968 0.0286,-0.19502 -0.43564,-0.25203 -1.51964,-0.487 -0.89076,0.23207 -1.1652,0.17645 -0.87832,0.15945 1.14788,-0.73357 2.07824,-2.67185 3.53284,-4.97996 1e-5,-10e-6 2e-5,-2e-5 2e-5,-3e-5 1.84269,-3.2039 3.52351,-6.65303 5.30201,-10.20524 1.45951,-2.92252 2.94478,-5.88227 4.51785,-8.84498 0.6228,-1.17296 1.25819,-2.34413 1.9099,-3.51135 2.28785,-4.10974 4.81151,-8.21057 7.79549,-12.0922 10e-6,-10e-6 2e-5,-2e-5 2e-5,-4e-5 2.63368,-3.47826 5.8362,-6.86469 9.85867,-9.55757 2e-5,-10e-6 3e-5,-2e-5 4e-5,-2e-5 3.68241,-2.47807 8.20554,-3.95943 13.03504,-3.83086 5.70842,0.39208 10.63518,2.74276 14.47192,5.75909 1e-5,10e-6 3e-5,2e-5 4e-5,3e-5 3.00174,2.2532 5.36741,5.29082 6.80538,8.81417 1.38368,3.56575 1.83934,7.19163 1.70646,10.57751 -0.30878,8.16236 -2.77871,15.57632 -5.46407,22.25994 -2.96622,7.56266 -6.3981,14.66005 -9.54109,21.61676 -1.41799,3.14652 -2.77435,6.2254 -3.9251,9.2916 -0.93754,2.54152 -1.75828,4.92614 -2.12654,7.2006 -0.14372,0.21989 0.0726,0.93696 0.26113,2.05045 0.33111,1.39006 0.89561,2.85414 1.5384,4.41843 1.55829,3.75115 3.5236,7.47182 5.48208,11.33258 1.72268,3.34817 3.62445,6.94218 5.02594,11.01422 1e-5,2e-5 1e-5,3e-5 2e-5,4e-5 0.49764,1.19166 0.94425,2.96475 0.9255,5.2833 0,3e-5 0,5e-5 0,8e-5 0.03,0.87631 -0.29461,2.02958 -1.04109,3.38243 -0.90236,1.2989 -2.03212,2.15893 -3.30479,2.55656 -8.68446,2.83572 -17.35231,4.40075 -25.65668,5.87652 -8.34283,1.5075 -16.35643,2.88347 -23.71203,5.30305 0,0 -1e-5,0 -2e-5,0 -1.66701,0.425 -3.40091,1.9385 -5.4688,3.60303 -2.65405,2.26909 -5.14859,4.85607 -7.68678,7.50629 -2.8579,2.99244 -5.68469,6.0479 -8.61212,9.02766 -2.83272,2.89097 -5.79824,5.75454 -9.05927,8.34658 -2.67111,2.18045 -5.82401,4.26846 -9.58468,5.54231 -1.59549,0.53584 -3.38143,0.8326 -5.28467,0.76815 -1e-5,0 -3e-5,0 -4e-5,0 -1.88031,-0.0895 -3.69984,-0.60582 -5.33624,-1.50302 -1e-5,0 -2e-5,-10e-6 -4e-5,-2e-5 -1.8663,-1.06464 -3.34268,-2.42669 -4.46396,-3.88188 -1e-5,-10e-6 -1e-5,-2e-5 -2e-5,-3e-5 -1.49437,-1.91325 -2.58368,-3.9297 -3.41863,-5.89399 -2.6676,-6.2379 -3.8368,-12.5787 -4.66551,-18.53302 -1.08143,-7.77463 -0.22008,-15.20668 1.09932,-22.02682 1.3856,-7.31083 3.22181,-14.04379 4.38021,-20.48431 0.67091,-3.36548 0.19975,-7.12336 -0.0899,-11.02566 -0.37989,-4.04247 -0.60534,-8.41078 0.46783,-12.71357 0,-1e-5 0,-1e-5 1e-5,-2e-5 2.06513,-7.79612 5.7494,-14.61897 10.3255,-20.00284 2.49983,-2.92768 5.22643,-5.4137 8.0239,-7.51958 2.79748,-2.10588 5.66625,-3.83176 8.4933,-5.24144 0,-10e-6 1e-5,-10e-6 1e-5,-10e-6 6.12793,-3.04728 11.95708,-4.71859 17.07667,-5.69482 5.11958,-0.97624 9.53897,-1.25418 13.09544,-1.27663 3.55646,-0.0225 6.25784,0.2131 8.05923,0.45804 1.80139,0.24494 2.70753,0.50032 2.69542,0.68395 z"
           id="path5216"
           inkscape:path-effect="#path-effect5218"
           inkscape:original-d="m 231.42857,442.36218 c -27.43791,-1.80993 -57.46055,9.12791 -65,39.28572 -1.84829,7.39318 1.25674,16.03102 0,23.57142 -2.23476,13.40858 -7.12498,27.61616 -5,41.42858 9.47018,61.55617 41.87292,-3.00526 58.57143,-8.57143 15.21311,-5.07104 33.09482,-6.03161 49.28571,-11.42857 6.11436,-2.03812 -13.60414,-27.66086 -12.14285,-36.42858 3.18064,-19.08385 34.04677,-60.1792 14.28571,-75 -33.55396,-25.16546 -47.76537,57.94892 -58.57143,47.14286 -9.15231,-9.15231 -38.1072,-73.32137 -63.57143,-47.85714 -19.11383,19.11383 14.37316,62.58006 18.57143,83.57143 4.39752,21.98756 -39.08258,27.75224 -34.28571,42.14285 2.58941,7.76825 22.98036,-3.52714 25.71428,-5.71428 12.41039,-9.92831 22.91324,-22.38668 30.71429,-36.42857 7.83087,-14.09557 1.93726,-30.40855 23.57143,-25 3.29804,0.82451 8.32478,4.06473 6.42857,7.85714 -1.32768,2.65536 -12.14446,14.28732 -15,17.14286 -4.04496,4.04495 -3.19367,25.33653 5.71429,16.42857 2.53098,-2.53099 -7.13493,-0.71429 -10.71429,-0.71429"
           inkscape:connector-curvature="0" />
        <path
           style="fill:url(#radialGradient5254);fill-opacity:1;fill-rule:nonzero;stroke:none"
           d="m 200,423.79075 c -0.094,-0.0619 -0.041,-0.38825 0.291,-0.92185 0.33204,-0.5336 0.96052,-1.29201 2.10508,-1.88832 0.96324,-0.50056 2.29909,-0.8662 3.86646,-0.6454 0,0 0,0 1e-5,0 1.21224,0.17253 2.53283,0.70618 3.66077,1.74622 0.95572,0.88423 1.74015,2.1144 2.08319,3.60693 0.36168,1.63291 0.18583,3.47767 -0.63924,5.16915 -0.73333,1.50055 -1.9046,2.85035 -3.40475,3.84865 -1.32272,0.86003 -2.82158,1.47473 -4.42359,1.84412 -1.60202,0.36939 -3.30763,0.49305 -5.00035,0.4029 -2.95235,-0.12076 -5.89366,-0.72484 -8.77918,-1.00343 -2.60128,-0.20734 -5.27714,-0.24731 -7.42597,0.77597 -1.67753,0.70524 -3.20183,2.10094 -4.55693,3.79349 -1.27609,1.61762 -2.3406,3.60178 -3.48937,5.76477 -1.07735,2.06609 -2.23463,4.31854 -3.82746,6.55866 -1.51573,2.16114 -3.54354,4.23212 -6.2368,5.72161 -2.38993,1.24046 -4.93118,1.85306 -7.34733,2.11823 -2.32607,0.28248 -4.53195,0.35021 -6.54339,0.6045 -1.93954,0.27353 -3.75373,0.63376 -5.14758,1.43904 -1.30025,0.77593 -2.45543,1.81985 -2.73925,2.93721 -0.39397,0.93112 -0.2278,2.27806 0.1374,3.67595 0.39595,1.39441 1.24919,2.86829 2.20554,4.55219 0.96999,1.63428 2.0751,3.48745 2.9572,5.7373 0.90557,2.21977 1.33833,4.88646 0.84108,7.76326 -0.51955,2.35338 -1.58907,4.37025 -2.91439,5.96753 -1.27692,1.57427 -2.63644,2.84223 -3.87015,3.95494 -1.19783,1.1143 -2.28451,2.08992 -3.04368,3.08602 -0.71911,0.98303 -1.29019,1.92043 -1.38829,2.745 0,0 0,10e-6 0,10e-6 -0.203,0.82328 -0.006,1.90698 0.35054,3.04393 0.37401,1.13854 1.09971,2.33229 1.95485,3.64554 1.77845,2.53016 4.24178,5.58483 5.67577,9.99349 1.16303,4.60062 0.64634,8.90442 0.0155,12.47224 -0.38199,3.47114 -0.90686,6.55112 0.0701,8.63268 0.39288,1.09155 1.12218,2.1347 2.03298,2.97975 0.90429,0.8419 2.06358,1.49819 3.31337,1.92475 0,0 1e-5,1e-5 2e-5,1e-5 2.44105,0.8825 5.46252,0.65509 8.23497,-0.30337 2.75767,-0.95825 5.34507,-2.86157 7.66099,-5.18984 2.27753,-2.3075 4.22855,-5.16408 6.1176,-8.26028 3.6305,-6.0883 6.97609,-13.34818 12.81051,-19.79279 2.87717,-3.1535 6.47975,-5.92284 10.79022,-7.73587 4.28724,-1.80905 9.26004,-2.34661 14.15556,-1.0821 5.07277,1.45816 9.30618,4.67791 12.15127,8.78431 2.7872,4.0114 4.42265,8.5434 5.15775,13.05361 0,2e-5 0,3e-5 0,4e-5 1.41428,8.83007 0.21673,17.19382 0.20815,24.75468 0.0344,3.71503 0.29759,7.29307 1.25881,10.50762 0.95938,3.15403 2.44003,6.09332 4.59192,8.09522 2.08566,1.93745 4.81847,3.31872 7.3175,3.24384 1.24685,-0.002 2.49816,-0.26237 3.52277,-0.79286 1e-5,0 1e-5,-10e-6 2e-5,-10e-6 1.01338,-0.52005 1.92295,-1.2952 2.47597,-2.1834 0.82981,-1.10788 1.1314,-2.92009 1.28478,-4.94062 0.10577,-2.04741 -0.22788,-4.42392 -0.48176,-7.13651 -0.28406,-2.50953 -0.44551,-5.34051 -0.0646,-8.41906 0.029,-0.23465 0.0612,-0.47067 0.0967,-0.70802 0.46929,-3.41945 2.06688,-6.91644 4.96415,-9.75638 2.44131,-2.15649 5.23378,-3.41522 7.96704,-3.91767 2.7078,-0.52133 5.23289,-0.56249 7.4935,-0.42736 4.52956,0.0916 8.21838,0.79361 10.60305,-0.2684 1.99397,-0.62846 3.83611,-2.30197 4.95942,-4.26311 1.1611,-2.00068 1.58369,-4.57646 1.35213,-7.05001 -0.23212,-2.51816 -1.27232,-5.06028 -2.77061,-7.30668 -10e-6,-10e-6 -10e-6,-2e-5 -2e-5,-3e-5 -1.52068,-2.27736 -3.63851,-4.25448 -6.02766,-5.91326 0,0 -1e-5,-10e-6 -2e-5,-10e-6 -4.83296,-3.4191 -11.02706,-5.16933 -17.43352,-6.61642 -6.56899,-1.40837 -13.57899,-2.40743 -20.58665,-4.56327 -4.85191,-1.52744 -9.31049,-3.47862 -13.57107,-5.3418 -4.26058,-1.86318 -8.32321,-3.63825 -12.367,-4.86323 -4.14694,-1.24539 -8.27003,-2.029 -12.18542,-1.83931 -3.96335,0.20259 -7.81771,1.23602 -10.73771,3.31058 -2.48803,1.65517 -4.96604,4.63471 -8.64018,7.28347 -1.86344,1.3637 -4.11773,2.49421 -6.71512,3.10948 -2.66442,0.64286 -5.62011,0.40794 -8.41371,-0.87063 -1e-5,-10e-6 -3e-5,-10e-6 -4e-5,-2e-5 -2.27117,-1.14131 -4.03825,-2.86924 -5.1844,-4.91166 -1.14394,-2.0433 -1.72792,-4.23155 -1.81355,-6.37209 -0.0968,-4.31309 1.23128,-8.10826 3.0641,-11.14788 4.04566,-7.06431 10.47646,-12.31728 17.71913,-15.00255 7.60583,-2.80315 15.83384,-2.73427 23.05204,-0.26739 7.63714,2.62468 13.92792,7.8051 17.98843,14.1328 2.16974,3.39239 3.68443,7.06967 4.57402,10.80861 0.88959,3.73894 1.15413,7.53965 0.83248,11.22054 -0.32077,3.76672 -1.27622,7.39712 -2.75237,10.70241 -1.47614,3.30529 -3.47299,6.28572 -5.88483,8.80416 -2.68742,2.79631 -5.87533,4.92943 -9.23553,6.34315 -3.36021,1.41372 -6.89318,2.10845 -10.35182,2.07892 -3.8039,-0.0478 -7.43152,-0.98591 -10.57566,-2.58916 -3.41439,-1.74329 -6.20028,-4.26156 -8.18703,-7.13231 -2.1997,-3.18278 -3.3692,-6.75193 -3.63163,-10.16964 -0.29736,-3.91104 0.60431,-7.54756 2.16122,-10.48074 1.23239,-2.31096 2.8542,-4.15518 4.56924,-5.56074 1.71503,-1.40556 3.52542,-2.37465 5.25146,-2.99909 2.02327,-0.72908 3.90564,-0.98678 5.51251,-1.01523 1.60688,-0.0284 2.94335,0.172 3.98606,0.42419 1.04271,0.25218 1.79553,0.55583 2.27866,0.80348 0.48313,0.24766 0.69881,0.43916 0.66458,0.5398 -0.0342,0.10064 -0.31767,0.10947 -0.83934,0.0684 -0.52167,-0.0411 -1.28378,-0.13109 -2.28054,-0.16873 -0.99676,-0.0376 -2.23203,-0.022 -3.65949,0.19397 -1.42746,0.21599 -3.0522,0.63319 -4.72008,1.43148 -1.42448,0.67923 -2.88562,1.64509 -4.23008,2.94359 -1.34447,1.2985 -2.57433,2.9319 -3.43654,4.86653 -1.10366,2.45959 -1.63123,5.46143 -1.22168,8.54519 0.35581,2.69969 1.45629,5.49406 3.29764,7.9014 1.66239,2.17725 3.96712,4.05554 6.68248,5.29979 2.50287,1.14901 5.39353,1.75738 8.3564,1.68236 2.67872,-0.0543 5.43198,-0.7183 8.04259,-1.94157 2.61061,-1.22326 5.07906,-3.00613 7.11071,-5.24291 1.84849,-2.02537 3.35636,-4.45599 4.45106,-7.15011 1.0947,-2.69412 1.77624,-5.65198 1.96601,-8.6802 0.17794,-2.96831 -0.12418,-6.03603 -0.91795,-9.02793 -0.79376,-2.9919 -2.07919,-5.90811 -3.85791,-8.53224 -3.30892,-4.90161 -8.43552,-8.91537 -14.36834,-10.79714 -5.59495,-1.78825 -12.05558,-1.70335 -17.75521,0.53816 -5.43132,2.11999 -10.32355,6.27185 -13.22019,11.5683 -1.17731,2.31992 -2.09152,4.6076 -1.85049,6.54437 0.0811,0.94346 0.30856,1.83941 0.72657,2.49144 0.40243,0.62986 0.94088,1.17965 1.47572,1.38968 1e-5,0 1e-5,0 1e-5,0 0.60103,0.35622 1.64294,0.33558 2.69072,0.14283 1.07995,-0.21247 2.24653,-0.88684 3.47699,-1.73865 2.42898,-1.72159 4.86241,-4.72386 8.63472,-7.4533 4.61961,-3.20601 10.06403,-4.85508 15.48578,-5.09243 5.28817,-0.24173 10.46525,0.61875 15.30777,2.08311 4.71148,1.41417 9.13836,3.27306 13.42901,5.10384 4.29066,1.83079 8.44512,3.63336 12.63052,4.88602 6.01916,1.85153 12.73614,2.72583 19.78998,4.20987 6.94104,1.38687 14.28998,3.5828 20.95034,7.99882 1e-5,10e-6 2e-5,10e-6 3e-5,2e-5 3.27826,2.20476 6.27024,5.03043 8.6482,8.47003 10e-6,1e-5 10e-6,2e-5 2e-5,3e-5 2.36691,3.42154 3.97763,7.46786 4.4703,11.82936 0.48731,4.34997 -0.31824,8.88401 -2.52194,12.92485 -2.21528,4.03333 -5.86963,7.24327 -10.41528,8.85423 -5.49778,1.63724 -10.44102,1.122 -14.30425,0.81586 -1.91018,-0.0625 -3.60847,-0.0831 -5.00678,0.24042 -1.35637,0.339 -2.55944,0.78555 -3.19682,1.47315 -0.93355,0.69897 -1.49882,2.28844 -1.88141,4.03855 -0.0248,0.12865 -0.0469,0.25929 -0.0665,0.39187 -0.25675,1.73938 -0.0784,3.8066 0.11686,6.12068 0.26432,2.50293 0.61012,5.33887 0.51814,8.5039 -0.0453,3.21687 -0.88518,6.71361 -2.88786,9.98441 -1.62268,2.47516 -3.83959,4.41383 -6.39393,5.67974 -1e-5,10e-6 -2e-5,10e-6 -4e-5,2e-5 -2.55777,1.26279 -5.32374,1.86905 -8.06641,1.83571 -5.52794,-0.13849 -10.53309,-2.47433 -14.15679,-6.08017 -3.61118,-3.59354 -5.94788,-7.99837 -7.18211,-12.49413 -1.25384,-4.51003 -1.62575,-8.99115 -1.59281,-13.23235 -0.0116,-8.60571 1.27734,-16.37404 0.055,-23.13674 -1e-5,-10e-6 -1e-5,-2e-5 -1e-5,-3e-5 -0.6061,-3.4215 -1.66501,-6.63745 -3.45575,-9.12195 -1.78969,-2.47017 -4.2248,-4.47991 -6.8087,-5.12991 -2.44145,-0.75563 -5.39101,-0.38175 -8.06206,0.63608 -2.74443,1.05311 -5.26648,3.02971 -7.5165,5.36196 -4.65158,4.77467 -7.72853,11.55162 -11.8664,18.16358 -2.0907,3.41017 -4.5132,6.793 -7.50598,9.81767 -3.04863,3.09926 -6.80061,5.67317 -11.10779,7.20872 -4.42695,1.58282 -9.38999,1.74146 -14.02081,0.17111 -1e-5,0 -2e-5,-10e-6 -3e-5,-10e-6 -2.34114,-0.81896 -4.51169,-2.12404 -6.35061,-3.85542 -1.86176,-1.75575 -3.29806,-3.9415 -4.16788,-6.39201 -1.47102,-4.78552 -1.00294,-9.19098 -0.29221,-12.7678 0.48713,-3.64305 1.14748,-6.72597 0.37787,-8.98442 -0.45336,-2.28966 -2.54835,-4.69181 -4.49022,-7.84309 -1.04034,-1.58141 -2.03193,-3.40326 -2.74603,-5.50223 -0.74624,-2.14336 -0.98333,-4.59402 -0.49687,-7.11458 0,-10e-6 0,-3e-5 1e-5,-4e-5 0.57221,-2.42637 1.69528,-4.43447 3.03732,-5.99623 1.33077,-1.58425 2.71372,-2.81917 3.95419,-3.88989 1.23995,-1.104 2.34521,-2.051 3.12989,-3.01893 0.76734,-0.98325 1.37423,-1.91982 1.51922,-2.76997 0.30719,-1.00109 0.0311,-2.36123 -0.40911,-3.78594 -0.49078,-1.46796 -1.3981,-3.01201 -2.34207,-4.75669 -0.99811,-1.7666 -2.02148,-3.78112 -2.69932,-6.11614 -0.7325,-2.41459 -0.77732,-5.18885 0.16314,-7.89825 1.2443,-3.05157 3.51257,-5.22204 6.04841,-6.43285 2.5547,-1.23971 5.12532,-1.75235 7.4779,-1.94092 2.41527,-0.22228 4.6028,-0.21965 6.56334,-0.4001 2.0166,-0.21354 3.84482,-0.52684 5.27566,-1.27001 1.66869,-0.7751 3.11961,-2.22501 4.41323,-3.84486 1.34577,-1.71482 2.45991,-3.73118 3.64905,-5.78083 1.23525,-2.16618 2.57705,-4.38298 4.26393,-6.39229 1.78352,-2.14937 4.06486,-3.94609 6.7061,-5.00064 3.4774,-1.26925 6.86102,-1.15153 9.77405,-0.67487 3.21117,0.47766 5.96863,1.22312 8.49351,1.45862 2.85509,0.22562 5.49458,-0.0342 7.39582,-1.17937 1.0838,-0.63003 1.97277,-1.47468 2.51873,-2.42212 0.60827,-1.05128 0.86183,-2.24814 0.71624,-3.28776 -0.12114,-0.95296 -0.55173,-1.83287 -1.1222,-2.4899 -0.67034,-0.77597 -1.55555,-1.27922 -2.40431,-1.51889 0,0 0,0 0,0 -1.09665,-0.312 -2.16202,-0.21059 -2.98787,0.0358 -0.9823,0.29169 -1.66712,0.77553 -2.11928,1.11154 -0.45216,0.33601 -0.69442,0.53519 -0.78841,0.47329 z"
           id="path5224"
           inkscape:path-effect="#path-effect5226;#path-effect5228"
           inkscape:original-d="m 200,423.79075 c 3.57143,0.71429 7.15298,1.37972 10.71429,2.14286 2.43168,0.52108 -16.3394,2.09827 -29.28572,8.57143 -11.51394,5.75697 -7.97554,15.07104 -18.57143,21.42857 -6.50749,3.9045 -16.34599,4.95871 -23.57143,8.57143 -1.45867,0.72933 7.50145,18.56854 5.71429,22.14286 -2.70735,5.4147 -7.56319,11.8489 -11.42857,15.71428 -1.59764,1.59765 7.11425,17.08565 7.85714,18.57143 2.34567,4.69133 -3.53366,17.89491 0,21.42857 13.98358,13.98358 47.64092,-44.39383 67.85714,-34.28571 13.78631,6.89315 41.19966,64.04303 42.14286,63.57143 10.13033,-5.06517 -0.28403,-24.71597 5,-30 7.84313,-7.84313 12.69734,0.29136 24.28572,-3.57143 19.59062,-6.53021 -35.19309,-41.54925 -40.71429,-45 -16.00277,-10.00173 -34.21498,-10.18741 -52.85714,-7.85715 -7.07982,0.88498 -16.09489,15.66738 -19.28572,9.28572 -2.09381,-4.18762 -3.31834,-11.72664 -2.14285,-16.42857 9.76304,-39.05217 71.67607,-3.22841 57.14285,18.57143 -10.43429,15.65143 -43.57143,26.20474 -43.57143,-1.42858 0,-19.18607 11.57523,-10.0946 20.71429,-8.57142"
           inkscape:connector-curvature="0" />
      </g>
    </g>
    <path
       inkscape:connector-curvature="0"
       style="fill:url(#radialGradient5433);fill-opacity:1;fill-rule:nonzero;stroke:url(#linearGradient5435);stroke-width:1px;stroke-linecap:butt;stroke-linejoin:miter;stroke-opacity:1"
       d="m 65,487.36218 c 0,-2.44664 0.0902,-4.86664 0.21875,-7.28125 -0.93161,4.63777 -1.375,7.28125 -1.375,7.28125 l 1.15625,0 z M 79.375,426.76843 C 101.58413,382.65712 147.24395,352.36218 200,352.36218 l 0,-160 -1.15625,0 C 131.44487,286.72396 96.6305,372.36182 79.375,426.76843 z"
       id="path5314-2" />
  </g>
</svg>
