<?xml version="1.0" encoding="UTF-8" standalone="no"?>
<!-- Created with Inkscape (http://www.inkscape.org/) -->

<svg
   xmlns:dc="http://purl.org/dc/elements/1.1/"
   xmlns:cc="http://creativecommons.org/ns#"
   xmlns:rdf="http://www.w3.org/1999/02/22-rdf-syntax-ns#"
   xmlns:svg="http://www.w3.org/2000/svg"
   xmlns="http://www.w3.org/2000/svg"
   xmlns:xlink="http://www.w3.org/1999/xlink"
   xmlns:sodipodi="http://sodipodi.sourceforge.net/DTD/sodipodi-0.dtd"
   xmlns:inkscape="http://www.inkscape.org/namespaces/inkscape"
   width="210mm"
   height="297mm"
   id="svg4559"
   version="1.1"
   inkscape:version="0.48.2 r9819"
   sodipodi:docname="Nouveau document 7">
  <defs
     id="defs4561">
    <linearGradient
       id="linearGradient6799">
      <stop
         style="stop-color:#d4ff2a;stop-opacity:1;"
         offset="0"
         id="stop6801" />
      <stop
         style="stop-color:#6dce33;stop-opacity:1;"
         offset="1"
         id="stop6803" />
    </linearGradient>
    <linearGradient
       id="linearGradient6791">
      <stop
         style="stop-color:#485799;stop-opacity:1;"
         offset="0"
         id="stop6793" />
      <stop
         style="stop-color:#00177f;stop-opacity:1;"
         offset="1"
         id="stop6795" />
    </linearGradient>
    <pattern
       inkscape:stockid="Stripes 2:1 white"
       id="Strips2_1white"
       patternTransform="translate(0,0) scale(10,10)"
       height="1"
       width="1.5"
       patternUnits="userSpaceOnUse"
       inkscape:collect="always">
      <rect
         id="rect5981"
         height="2"
         width="1"
         y="-0.5"
         x="0"
         style="fill:white;stroke:none" />
    </pattern>
    <radialGradient
       inkscape:collect="always"
       xlink:href="#linearGradient6791"
       id="radialGradient6797"
       cx="300"
       cy="651.13586"
       fx="300"
       fy="651.13586"
       r="192.32812"
       gradientTransform="matrix(1,0,0,1.3104813,0,-200.93919)"
       gradientUnits="userSpaceOnUse" />
    <linearGradient
       inkscape:collect="always"
       xlink:href="#linearGradient6799"
       id="linearGradient6807"
       x1="410"
       y1="764.19641"
       x2="410"
       y2="652.36218"
       gradientUnits="userSpaceOnUse" />
  </defs>
  <sodipodi:namedview
     id="base"
     pagecolor="#ffffff"
     bordercolor="#666666"
     borderopacity="1.0"
     inkscape:pageopacity="0.0"
     inkscape:pageshadow="2"
     inkscape:zoom="1.4"
     inkscape:cx="400.71201"
     inkscape:cy="481.97586"
     inkscape:document-units="px"
     inkscape:current-layer="layer1"
     showgrid="false"
     showguides="true"
     inkscape:guide-bbox="true"
     inkscape:window-width="1920"
     inkscape:window-height="1005"
     inkscape:window-x="-9"
     inkscape:window-y="-9"
     inkscape:window-maximized="1">
    <sodipodi:guide
       orientation="0,1"
       position="300,400"
       id="guide4567" />
    <sodipodi:guide
       orientation="1,0"
       position="300,400"
       id="guide4569" />
    <sodipodi:guide
       orientation="0,1"
       position="300,440"
       id="guide4571" />
    <sodipodi:guide
       orientation="0,1"
       position="300,360"
       id="guide4573" />
    <sodipodi:guide
       orientation="1,0"
       position="390,400"
       id="guide4575" />
    <sodipodi:guide
       orientation="1,0"
       position="210,400"
       id="guide4577" />
    <sodipodi:guide
       orientation="0,1"
       position="300,435"
       id="guide4585" />
    <sodipodi:guide
       orientation="0,1"
       position="300,365"
       id="guide4589" />
    <sodipodi:guide
       orientation="1,0"
       position="385,400"
       id="guide4593" />
    <sodipodi:guide
       orientation="1,0"
       position="215,400"
       id="guide4597" />
    <sodipodi:guide
       orientation="0,1"
       position="300,460"
       id="guide4610" />
    <sodipodi:guide
       orientation="1,0"
       position="190,400"
       id="guide4612" />
    <sodipodi:guide
       orientation="0,1"
       position="300,340"
       id="guide4614" />
    <sodipodi:guide
       orientation="1,0"
       position="410,400"
       id="guide4616" />
    <sodipodi:guide
       orientation="1,0"
       position="284.35794,557.09913"
       id="guide4649" />
    <sodipodi:guide
       orientation="1,0"
       position="314.66252,315.67267"
       id="guide4678" />
    <sodipodi:guide
       orientation="0,1"
       position="447.49758,384.36304"
       id="guide4680" />
  </sodipodi:namedview>
  <metadata
     id="metadata4564">
    <rdf:RDF>
      <cc:Work
         rdf:about="">
        <dc:format>image/svg+xml</dc:format>
        <dc:type
           rdf:resource="http://purl.org/dc/dcmitype/StillImage" />
        <dc:title></dc:title>
      </cc:Work>
    </rdf:RDF>
  </metadata>
  <g
     inkscape:label="Calque 1"
     inkscape:groupmode="layer"
     id="layer1">
    <path
       style="fill:url(#linearGradient6807);fill-opacity:1;fill-rule:nonzero;stroke:none"
       d="M 509.0625 652.375 L 410 652.375 C 410 654.27654 409.84854 656.14391 409.53125 658 C 409.21396 659.85609 408.7453 661.69712 408.125 663.5 C 407.5047 665.30288 406.72153 667.07058 405.8125 668.8125 C 404.90347 670.55442 403.83975 672.26428 402.65625 673.9375 C 401.47275 675.61072 400.16243 677.24698 398.71875 678.84375 C 397.27507 680.44052 395.72084 682.01868 394.03125 683.53125 C 392.34166 685.04382 390.51498 686.51688 388.59375 687.9375 C 386.67252 689.35812 384.63859 690.71032 382.5 692.03125 C 380.36141 693.35218 378.12293 694.63027 375.78125 695.84375 C 373.43957 697.05723 370.99924 698.21421 368.46875 699.3125 C 365.93826 700.41079 363.33003 701.46215 360.625 702.4375 C 357.91997 703.41285 355.11529 704.31158 352.25 705.15625 C 349.38471 706.00092 346.44878 706.76252 343.4375 707.46875 C 340.42622 708.17498 337.36174 708.81495 334.21875 709.375 C 331.07576 709.93505 327.85418 710.43763 324.59375 710.84375 C 321.33332 711.24987 318.01985 711.56806 314.65625 711.8125 L 314.65625 788.5 C 317.57352 788.63055 320.45702 788.875 323.40625 788.875 C 410.32689 788.875 483.88694 731.54494 509.0625 652.375 z "
       id="path4686" />
    <path
       id="path6640"
       d="M 509.0625 652.375 L 410 652.375 C 410 654.27654 409.84854 656.14391 409.53125 658 C 409.21396 659.85609 408.7453 661.69712 408.125 663.5 C 407.5047 665.30288 406.72153 667.07058 405.8125 668.8125 C 404.90347 670.55442 403.83975 672.26428 402.65625 673.9375 C 401.47275 675.61072 400.16243 677.24698 398.71875 678.84375 C 397.27507 680.44052 395.72084 682.01868 394.03125 683.53125 C 392.34166 685.04382 390.51498 686.51688 388.59375 687.9375 C 386.67252 689.35812 384.63859 690.71032 382.5 692.03125 C 380.36141 693.35218 378.12293 694.63027 375.78125 695.84375 C 373.43957 697.05723 370.99924 698.21421 368.46875 699.3125 C 365.93826 700.41079 363.33003 701.46215 360.625 702.4375 C 357.91997 703.41285 355.11529 704.31158 352.25 705.15625 C 349.38471 706.00092 346.44878 706.76252 343.4375 707.46875 C 340.42622 708.17498 337.36174 708.81495 334.21875 709.375 C 331.07576 709.93505 327.85418 710.43763 324.59375 710.84375 C 321.33332 711.24987 318.01985 711.56806 314.65625 711.8125 L 314.65625 788.5 C 317.57352 788.63055 320.45702 788.875 323.40625 788.875 C 410.32689 788.875 483.88694 731.54494 509.0625 652.375 z "
       style="fill:url(#Strips2_1white);fill-opacity:1;fill-rule:nonzero;stroke:none;opacity:0.25" />
    <path
       style="fill:url(#radialGradient6797);fill-opacity:1;fill-rule:nonzero;stroke:none"
       d="M 323.40625 395.84375 C 310.02064 395.84375 296.97087 397.1922 284.34375 399.78125 L 284.34375 495.25 L 284.34375 508.90625 L 284.34375 593.125 C 239.40682 596.39126 203.10559 614.55445 192.59375 638.25 L 133.75 638.25 C 153.59698 721.88366 226.55038 784.55713 314.65625 788.5 L 314.65625 711.8125 C 318.01985 711.56806 321.33332 711.24987 324.59375 710.84375 C 327.85418 710.43763 331.07576 709.93505 334.21875 709.375 C 337.36174 708.81495 340.42622 708.17498 343.4375 707.46875 C 346.44878 706.76252 349.38471 706.00092 352.25 705.15625 C 355.11529 704.31158 357.91997 703.41285 360.625 702.4375 C 363.33003 701.46215 365.93826 700.41079 368.46875 699.3125 C 370.99924 698.21421 373.43957 697.05723 375.78125 695.84375 C 378.12293 694.63027 380.36141 693.35218 382.5 692.03125 C 384.63859 690.71032 386.67252 689.35812 388.59375 687.9375 C 390.51498 686.51688 392.34166 685.04382 394.03125 683.53125 C 395.72084 682.01868 397.27507 680.44052 398.71875 678.84375 C 400.16243 677.24698 401.47275 675.61072 402.65625 673.9375 C 403.83975 672.26428 404.90347 670.55442 405.8125 668.8125 C 406.72153 667.07058 407.5047 665.30288 408.125 663.5 C 408.7453 661.69712 409.21396 659.85609 409.53125 658 C 409.84854 656.14391 410 654.27654 410 652.375 L 509.0625 652.375 C 515.0797 633.45262 518.40625 613.31254 518.40625 592.375 C 518.40625 483.83623 431.10177 395.84375 323.40625 395.84375 z M 300 617.375 C 346.9442 617.375 385 633.04503 385 652.375 C 385 671.70497 346.9442 687.375 300 687.375 C 253.0558 687.375 215 671.70497 215 652.375 C 215 633.04503 253.0558 617.375 300 617.375 z "
       id="path4608" />
    <path
       style="fill:#000000;fill-opacity:1;fill-rule:nonzero;stroke:none"
       d="M 300 612.375 C 250.29437 612.375 210 630.28361 210 652.375 C 210 674.46639 250.29437 692.375 300 692.375 C 349.70563 692.375 390 674.46639 390 652.375 C 390 630.28361 349.70563 612.375 300 612.375 z M 300 617.375 C 346.9442 617.375 385 633.04503 385 652.375 C 385 671.70497 346.9442 687.375 300 687.375 C 253.0558 687.375 215 671.70497 215 652.375 C 215 633.04503 253.0558 617.375 300 617.375 z "
       id="path4583" />
  </g>
</svg>
