<?xml version="1.0" encoding="UTF-8" standalone="no"?>
<!-- Created with Inkscape (http://www.inkscape.org/) -->

<svg
   xmlns:dc="http://purl.org/dc/elements/1.1/"
   xmlns:cc="http://creativecommons.org/ns#"
   xmlns:rdf="http://www.w3.org/1999/02/22-rdf-syntax-ns#"
   xmlns:svg="http://www.w3.org/2000/svg"
   xmlns="http://www.w3.org/2000/svg"
   xmlns:sodipodi="http://sodipodi.sourceforge.net/DTD/sodipodi-0.dtd"
   xmlns:inkscape="http://www.inkscape.org/namespaces/inkscape"
   width="50"
   height="70"
   id="svg3012"
   version="1.1"
   inkscape:version="0.48.2 r9819"
   sodipodi:docname="S1-1.svg"
   inkscape:export-filename="C:\Users\Thomas\Workspace\Escape-IR\src\fr\escape\resources\texture\swin4.png"
   inkscape:export-xdpi="90"
   inkscape:export-ydpi="90">
  <defs
     id="defs3014">
    <linearGradient
       id="linearGradient3816">
      <stop
         style="stop-color:#d4d4d4;stop-opacity:1;"
         offset="0"
         id="stop3818" />
      <stop
         style="stop-color:#2e2e2e;stop-opacity:1;"
         offset="1"
         id="stop3820" />
    </linearGradient>
  </defs>
  <sodipodi:namedview
     id="base"
     pagecolor="#ffffff"
     bordercolor="#666666"
     borderopacity="1.0"
     inkscape:pageopacity="0.0"
     inkscape:pageshadow="2"
     inkscape:zoom="8"
     inkscape:cx="21.875"
     inkscape:cy="40.07637"
     inkscape:document-units="px"
     inkscape:current-layer="g3891"
     showgrid="false"
     showguides="true"
     inkscape:guide-bbox="true"
     inkscape:window-width="1920"
     inkscape:window-height="1005"
     inkscape:window-x="-9"
     inkscape:window-y="-9"
     inkscape:window-maximized="1">
    <sodipodi:guide
       orientation="1,0"
       position="25,0"
       id="guide3020" />
    <sodipodi:guide
       orientation="0,1"
       position="25,69"
       id="guide3024" />
    <sodipodi:guide
       orientation="0,1"
       position="25,1"
       id="guide3026" />
    <sodipodi:guide
       orientation="0,1"
       position="28.5,62.75"
       id="guide4508" />
  </sodipodi:namedview>
  <metadata
     id="metadata3017">
    <rdf:RDF>
      <cc:Work
         rdf:about="">
        <dc:format>image/svg+xml</dc:format>
        <dc:type
           rdf:resource="http://purl.org/dc/dcmitype/StillImage" />
        <dc:title></dc:title>
      </cc:Work>
    </rdf:RDF>
  </metadata>
  <g
     inkscape:label="Calque 1"
     inkscape:groupmode="layer"
     id="layer1"
     transform="translate(0,-982.36218)">
    <g
       id="g3891">
      <path
         style="fill:#ff6600;fill-opacity:1;stroke:none"
         d="m 7.8204087,1042.9485 c 0,0 -0.1358329,-1.71 -0.3119559,-3.0512 -0.5260904,-4.0063 -0.7081914,-4.8189 -0.8145222,-7.2476 -0.081889,-1.8705 0.1370986,-5.6151 0.1370986,-5.6151 l 4.5835408,1.4561 0.847973,8.6317 z"
         id="path3905-9"
         inkscape:connector-curvature="0"
         sodipodi:nodetypes="csscccc" />
      <path
         style="fill:#ff6600;fill-opacity:1;stroke:none"
         d="m 42.17959,1042.9485 c 0,0 0.135833,-1.71 0.311956,-3.0512 0.52609,-4.0063 0.708191,-4.8189 0.814522,-7.2476 0.08189,-1.8705 -0.137098,-5.6151 -0.137098,-5.6151 l -4.583541,1.4561 -0.847973,8.6317 z"
         id="path3905-9-7"
         inkscape:connector-curvature="0"
         sodipodi:nodetypes="csscccc" />
      <path
         style="fill:#c83737;fill-opacity:1;stroke:none"
         d="m 24.999999,983.36216 c 0,0 -2.751572,1.70463 -3.98622,8.10714 -1.234648,6.40251 -1.490316,7.33766 -1.8982,13.3929 -0.854303,12.6825 3.717762,36.5851 2.75239,38.0357 -3.335781,5.0123 -7.80587,-4.2133 -7.131495,-10.0893 1.709156,-14.8923 2.601716,-19.0992 2.466985,-28.0077 -0.165353,-10.93322 -8.1947407,-15.54588 -8.1947407,-15.54588 0,0 7.2902237,8.54814 5.5085197,20.60008 -1.495569,10.1164 -2.278593,13.8621 -7.9428488,17.3447 5.8426018,5.1872 -0.070311,19.5642 -0.070311,19.5642 0,0 5.2140309,-6.4807 6.7607049,-5.0078 1.546674,1.4729 2.343679,2.8412 6.240293,7.0028 3.160016,2.7718 5.494923,2.6032 5.494923,2.6032 z"
         id="path3909-0"
         inkscape:connector-curvature="0"
         sodipodi:nodetypes="czsssscscczccc" />
      <path
         style="fill:#c83737;fill-opacity:1;stroke:none"
         d="m 25,983.36218 c 0,0 2.751572,1.70463 3.98622,8.10712 1.234648,6.4025 1.490316,7.3377 1.8982,13.3929 0.854303,12.6825 -3.717762,36.5851 -2.75239,38.0357 3.335781,5.0123 7.80587,-4.2133 7.131495,-10.0893 -1.709156,-14.8923 -2.601716,-19.0992 -2.466985,-28.0077 0.165353,-10.9332 8.194741,-15.5459 8.194741,-15.5459 0,0 -7.290224,8.5482 -5.50852,20.6001 1.495569,10.1164 2.278593,13.8621 7.942849,17.3447 -5.842602,5.1872 0.07031,19.5642 0.07031,19.5642 0,0 -5.214031,-6.4807 -6.760705,-5.0078 -1.546674,1.4729 -2.343679,2.8412 -6.240293,7.0028 -3.160016,2.7718 -5.494923,2.6032 -5.494923,2.6032 z"
         id="path3909-0-9"
         inkscape:connector-curvature="0"
         sodipodi:nodetypes="czsssscscczccc" />
      <path
         style="fill:#ececec;stroke:none"
         d="m 26.468751,1017.0575 c 0,0 1.604657,-2.8499 2.701279,-2.7891 -0.461232,-0.3456 -1.498997,-0.3537 1.320128,-3.0937 -1.753955,-2.0213 -0.910433,-3.0938 -0.910433,-3.0938 l -3.110974,-14.21872 z"
         id="path3911"
         inkscape:connector-curvature="0"
         sodipodi:nodetypes="cccccc" />
      <path
         sodipodi:nodetypes="cccccc"
         inkscape:connector-curvature="0"
         id="path3911-0"
         d="m 26.476378,1017.0536 c 0,0 -1.604657,-2.8499 -2.701279,-2.7891 0.461232,-0.3456 1.498997,-0.3537 -1.320128,-3.0937 1.753955,-2.0213 0.910433,-3.0938 0.910433,-3.0938 l 3.110974,-14.21875 z"
         style="fill:#ececec;stroke:none" />
    </g>
  </g>
</svg>
