<?xml version="1.0" encoding="UTF-8" standalone="no"?>
<!-- Created with Inkscape (http://www.inkscape.org/) -->

<svg
   xmlns:dc="http://purl.org/dc/elements/1.1/"
   xmlns:cc="http://creativecommons.org/ns#"
   xmlns:rdf="http://www.w3.org/1999/02/22-rdf-syntax-ns#"
   xmlns:svg="http://www.w3.org/2000/svg"
   xmlns="http://www.w3.org/2000/svg"
   xmlns:sodipodi="http://sodipodi.sourceforge.net/DTD/sodipodi-0.dtd"
   xmlns:inkscape="http://www.inkscape.org/namespaces/inkscape"
   width="40"
   height="40"
   id="svg5475"
   version="1.1"
   inkscape:version="0.48.2 r9819"
   sodipodi:docname="Weapon-Pattern.svg"
   inkscape:export-filename="C:\Users\Thomas\Workspace\Escape-IR\res\Weapon-Pattern.png"
   inkscape:export-xdpi="90"
   inkscape:export-ydpi="90">
  <defs
     id="defs5477" />
  <sodipodi:namedview
     id="base"
     pagecolor="#ffffff"
     bordercolor="#666666"
     borderopacity="1.0"
     inkscape:pageopacity="0.0"
     inkscape:pageshadow="2"
     inkscape:zoom="13.690798"
     inkscape:cx="39.00468"
     inkscape:cy="19.994417"
     inkscape:document-units="px"
     inkscape:current-layer="layer1"
     showgrid="false"
     showborder="true"
     showguides="true"
     inkscape:guide-bbox="true"
     inkscape:window-width="1920"
     inkscape:window-height="1005"
     inkscape:window-x="-9"
     inkscape:window-y="-9"
     inkscape:window-maximized="1">
    <sodipodi:guide
       orientation="0,1"
       position="0,40"
       id="guide5485" />
    <sodipodi:guide
       orientation="1,0"
       position="0,40"
       id="guide5487" />
    <sodipodi:guide
       orientation="0,1"
       position="40,0"
       id="guide5489" />
    <sodipodi:guide
       orientation="1,0"
       position="40,0"
       id="guide5491" />
    <sodipodi:guide
       orientation="0,1"
       position="10.357143,40"
       id="guide5497" />
    <sodipodi:guide
       orientation="0,1"
       position="2,38"
       id="guide5499" />
    <sodipodi:guide
       orientation="1,0"
       position="2,38"
       id="guide5501" />
    <sodipodi:guide
       orientation="1,0"
       position="40,31.160714"
       id="guide5503" />
    <sodipodi:guide
       orientation="0,1"
       position="38,2"
       id="guide5505" />
    <sodipodi:guide
       orientation="1,0"
       position="38,2"
       id="guide5507" />
  </sodipodi:namedview>
  <metadata
     id="metadata5480">
    <rdf:RDF>
      <cc:Work
         rdf:about="">
        <dc:format>image/svg+xml</dc:format>
        <dc:type
           rdf:resource="http://purl.org/dc/dcmitype/StillImage" />
        <dc:title></dc:title>
      </cc:Work>
    </rdf:RDF>
  </metadata>
  <g
     inkscape:label="Calque 1"
     inkscape:groupmode="layer"
     id="layer1"
     transform="translate(0,-1012.3622)">
    <rect
       style="fill:#ececec;fill-opacity:1;fill-rule:evenodd;stroke:none"
       id="rect5493"
       width="40"
       height="40"
       x="0"
       y="0"
       transform="translate(0,1012.3622)"
       ry="5.3571429" />
    <path
       style="fill:#000000;fill-opacity:1;fill-rule:evenodd;stroke:none"
       d="M 38 30.5 C 37.75183 30.5907 37.59375 30.71875 37.59375 30.71875 C 37.59375 30.71875 37.409394 30.952038 37.375 31.375 C 37.340606 31.797962 37.456176 32.41065 38 33.125 L 38 30.5 z "
       id="path6145"
       transform="translate(0,1012.3622)" />
    <path
       style="fill:#999999;fill-opacity:1;fill-rule:evenodd;stroke:none"
       d="M 38 27.5625 C 37.738131 27.3003 37.237382 26.813237 36.65625 26.34375 C 36.075118 25.874263 35.413604 25.4223 34.78125 25.21875 C 34.340985 25.07695 33.865946 25.0331 33.40625 25.0625 C 32.673683 25.1095 32.182485 25.58785 32.0625 25.71875 C 32.04686 25.73575 32.03125 25.75 32.03125 25.75 C 31.913661 25.8831 31.50073 26.42285 31.53125 27.15625 C 31.5504 27.61655 31.62519 28.0772 31.8125 28.5 C 32.081536 29.1074 32.623717 29.717837 33.15625 30.25 C 33.688783 30.782163 34.211668 31.236 34.5 31.46875 C 34.883788 31.778585 36.323789 33.309854 37.78125 34.40625 C 37.873985 34.00595 38 33.622452 38 33.1875 L 38 33.125 C 37.456176 32.41065 37.340606 31.797962 37.375 31.375 C 37.409394 30.952038 37.59375 30.71875 37.59375 30.71875 C 37.59375 30.71875 37.75183 30.5907 38 30.5 L 38 27.5625 z "
       id="path6143"
       transform="translate(0,1012.3622)" />
    <path
       style="fill:#000000;fill-opacity:1;fill-rule:evenodd;stroke:none"
       d="M 6.1875 2 C 3.8725715 2 2 4.1414271 2 6.8125 L 2 33.1875 C 2 35.858573 3.8725715 38 6.1875 38 L 33.8125 38 C 35.750471 38 37.304492 36.464226 37.78125 34.40625 C 36.323789 33.309854 34.883788 31.778585 34.5 31.46875 C 34.211668 31.236 33.688783 30.782163 33.15625 30.25 C 32.623717 29.717837 32.081536 29.1074 31.8125 28.5 C 31.62519 28.0772 31.5504 27.61655 31.53125 27.15625 C 31.50073 26.42285 31.913661 25.8831 32.03125 25.75 C 32.03125 25.75 32.04686 25.73575 32.0625 25.71875 C 32.182485 25.58785 32.673683 25.1095 33.40625 25.0625 C 33.865946 25.0331 34.340985 25.07695 34.78125 25.21875 C 35.413604 25.4223 36.075118 25.874263 36.65625 26.34375 C 37.237382 26.813237 37.738131 27.3003 38 27.5625 L 38 6.8125 C 38 4.1414271 36.127428 2 33.8125 2 L 6.1875 2 z "
       id="rect5495"
       transform="translate(0,1012.3622)" />
    <path
       style="fill:#cccccc;stroke:none"
       d="M 38 24.59375 C 37.102309 25.476155 36.047983 26.601292 34.71875 28.09375 C 29.112032 34.38885 29.15625 35.65625 29.15625 35.65625 L 30.8125 38 L 31.9375 38 C 31.989537 36.157238 32.90762 33.399788 36.34375 29.5625 C 36.920684 28.918202 37.466033 28.381338 38 27.875 L 38 24.59375 z "
       transform="translate(0,1012.3622)"
       id="path3827" />
    <path
       style="fill:#00ffff;fill-opacity:1;stroke:none"
       d="M 8.09375 5.8125 C 8.09375 5.8125 22.870185 26.119333 29 38 L 31.5 38 C 21.536313 23.242646 21.329418 22.017392 20.15625 16.34375 C 9.6189435 7.26735 8.09375 5.8125 8.09375 5.8125 z "
       transform="translate(0,1012.3622)"
       id="path2989" />
    <path
       style="fill:#00ffff;fill-opacity:1;stroke:none"
       d="M 9.78125 3.9375 C 9.78125 3.9375 11.395533 5.32105 21.53125 14.84375 C 26.416481 15.325961 28.083377 15.475686 38 20.5625 L 38 18.78125 C 25.607302 13.086499 9.78125 3.9375 9.78125 3.9375 z "
       transform="translate(0,1012.3622)"
       id="path2989-4" />
  </g>
</svg>
